<?xml version="1.0" encoding="iso-8859-1"?>
<!-- Generator: Adobe Illustrator 21.0.0, SVG Export Plug-In . SVG Version: 6.00 Build 0)  -->
<svg version="1.1" id="Layer_1" xmlns="http://www.w3.org/2000/svg" xmlns:xlink="http://www.w3.org/1999/xlink" x="0px" y="0px"
	 viewBox="0 0 98.624 98.624" style="enable-background:new 0 0 98.624 98.624;" xml:space="preserve">
<g>
	<polygon points="29.897,42.639 49.482,54.744 69.031,42.639 49.482,30.533 	"/>
	<path d="M49.312,0C22.078,0,0,22.078,0,49.312s22.078,49.312,49.312,49.312s49.312-22.078,49.312-49.312S76.546,0,49.312,0z
		 M49.518,80.617L30.041,68.945v-4.264l5.854,3.794l13.623-11.31l13.623,11.31l5.818-3.794v4.264h0L49.518,80.617z M82.474,53.407
		L63.07,66.054l-13.587-11.31l-13.587,11.31L16.419,53.262l13.478-10.624L16.419,31.761l19.477-12.539l13.587,11.31l13.587-11.31
		l19.404,12.647L69.032,42.637L82.474,53.407z"/>
</g>
</svg>
