<?xml version="1.0" encoding="iso-8859-1"?>
<!-- Generator: Adobe Illustrator 21.0.0, SVG Export Plug-In . SVG Version: 6.00 Build 0)  -->
<svg version="1.1" id="Layer_1" xmlns="http://www.w3.org/2000/svg" xmlns:xlink="http://www.w3.org/1999/xlink" x="0px" y="0px"
	 viewBox="0 0 62 62" style="enable-background:new 0 0 62 62;" xml:space="preserve">
<path d="M0,31c0-5.621,1.385-10.809,4.154-15.562c2.769-4.753,6.531-8.515,11.284-11.284S25.379,0,31,0s10.809,1.385,15.562,4.154
	c4.753,2.769,8.515,6.531,11.284,11.284C60.615,20.191,62,25.379,62,31s-1.385,10.809-4.154,15.562
	c-2.769,4.753-6.531,8.515-11.284,11.284C41.809,60.615,36.621,62,31,62s-10.809-1.385-15.562-4.154
	c-4.753-2.769-8.515-6.531-11.284-11.284S0,36.621,0,31z M5.146,31c0,6.448,2.17,12.131,6.51,17.05
	c1.984-3.885,5.125-7.585,9.424-11.098s8.494-5.725,12.586-6.634c-0.62-1.447-1.219-2.749-1.798-3.906
	c-7.109,2.273-14.797,3.41-23.064,3.41c-1.612,0-2.811-0.021-3.596-0.062c0,0.165-0.01,0.372-0.031,0.62
	C5.156,30.628,5.146,30.835,5.146,31z M5.952,24.614c0.909,0.083,2.253,0.124,4.03,0.124c6.903,0,13.454-0.93,19.654-2.79
	c-3.141-5.58-6.593-10.23-10.354-13.95c-3.265,1.653-6.066,3.947-8.401,6.882C8.546,17.815,6.903,21.059,5.952,24.614z
	 M15.19,51.398c4.671,3.637,9.941,5.456,15.81,5.456c3.059,0,6.097-0.579,9.114-1.736c-0.827-7.068-2.439-13.909-4.836-20.522
	c-3.803,0.827-7.636,2.914-11.501,6.262C19.912,44.206,17.05,47.719,15.19,51.398z M24.676,6.014
	c3.637,3.761,7.006,8.453,10.106,14.074c5.621-2.356,9.858-5.353,12.71-8.99C42.697,7.13,37.2,5.146,31,5.146
	C28.892,5.146,26.784,5.435,24.676,6.014z M37.014,24.49c0.62,1.323,1.323,2.997,2.108,5.022c3.059-0.289,6.386-0.434,9.982-0.434
	c2.563,0,5.105,0.062,7.626,0.186c-0.331-5.621-2.356-10.623-6.076-15.004C47.967,18.269,43.421,21.679,37.014,24.49z
	 M40.672,33.852c2.108,6.117,3.534,12.4,4.278,18.848c3.265-2.108,5.931-4.815,7.998-8.122s3.307-6.882,3.72-10.726
	c-3.017-0.207-5.766-0.31-8.246-0.31C46.149,33.542,43.565,33.645,40.672,33.852z"/>
</svg>
