<?xml version="1.0" encoding="iso-8859-1"?>
<!-- Generator: Adobe Illustrator 21.0.0, SVG Export Plug-In . SVG Version: 6.00 Build 0)  -->
<svg version="1.1" xmlns="http://www.w3.org/2000/svg" xmlns:xlink="http://www.w3.org/1999/xlink" x="0px" y="0px"
	 viewBox="0 0 49.855 64.47" style="enable-background:new 0 0 49.855 64.47;" xml:space="preserve">
<g id="Layer_27">
	<path d="M26.423,0c6.847,0,12.464,2.094,16.851,6.282s6.581,9.14,6.581,14.857c0,7.379-1.861,13.461-5.584,18.247
		s-8.509,7.179-14.358,7.179c-1.928,0-3.756-0.465-5.484-1.396c-1.728-0.931-2.925-2.027-3.59-3.29
		c-1.396,5.717-2.26,9.107-2.592,10.17c-1.064,3.855-3.29,7.91-6.681,12.165c-0.399,0.399-0.665,0.332-0.798-0.199
		c-0.798-5.65-0.764-10.337,0.1-14.059l4.686-20.241c-0.798-1.529-1.197-3.457-1.197-5.783c0-2.725,0.698-5.002,2.094-6.83
		s3.091-2.742,5.085-2.742c1.595,0,2.825,0.515,3.689,1.546s1.296,2.343,1.296,3.939c0,0.997-0.183,2.21-0.548,3.639
		c-0.366,1.429-0.848,3.091-1.446,4.986c-0.598,1.894-1.03,3.407-1.296,4.537c-0.465,1.928-0.1,3.606,1.097,5.035
		c1.197,1.429,2.792,2.144,4.786,2.144c3.39,0,6.182-1.928,8.376-5.783c2.194-3.855,3.29-8.509,3.29-13.959
		c0-4.188-1.346-7.595-4.038-10.22s-6.465-3.939-11.317-3.939c-5.451,0-9.855,1.745-13.212,5.235S7.179,19.178,7.179,24.03
		c0,2.858,0.831,5.285,2.493,7.279c0.532,0.665,0.698,1.329,0.499,1.994c-0.066,0.133-0.15,0.482-0.249,1.047
		c-0.1,0.565-0.183,0.964-0.249,1.197c-0.066,0.233-0.199,0.582-0.399,1.047c-0.199,0.465-0.432,0.681-0.698,0.648
		c-0.266-0.033-0.598-0.05-0.997-0.05C2.526,35.131,0,30.445,0,23.133c0-5.85,2.36-11.168,7.079-15.954S18.247,0,26.423,0z"/>
</g>
<g id="Layer_1">
</g>
</svg>
