<?xml version="1.0" encoding="iso-8859-1"?>
<!-- Generator: Adobe Illustrator 21.0.0, SVG Export Plug-In . SVG Version: 6.00 Build 0)  -->
<svg version="1.1" id="Layer_1" xmlns="http://www.w3.org/2000/svg" xmlns:xlink="http://www.w3.org/1999/xlink" x="0px" y="0px"
	 viewBox="0 0 98.624 98.624" style="enable-background:new 0 0 98.624 98.624;" xml:space="preserve">
<g>
	<path d="M73.61,27.495c-0.07-0.332-0.151-0.665-0.266-0.984c-0.432-1.205-1.302-1.922-2.531-2.228
		c-0.706-0.176-1.425-0.209-2.149-0.209c-12.793,0.001-25.585,0.001-38.378,0.001c-0.292,0-0.584,0.001-0.876,0.015
		c-0.552,0.026-1.098,0.096-1.631,0.246c-1.049,0.294-1.784,0.937-2.141,1.975c-0.115,0.335-0.198,0.685-0.264,1.034
		c-0.144,0.768-0.158,1.547-0.158,2.326c0.001,7.698,0,15.397,0,23.095c0,0.088,0,0.176,0,0.254
		c0.079,0.044,0.135,0.077,0.193,0.106c1.531,0.787,3.114,1.448,4.753,1.975c2.711,0.872,5.494,1.332,8.335,1.442
		c1.687,0.066,3.373,0.018,5.059-0.066c0.752-0.037,1.507-0.092,2.258,0.029c0.712,0.115,1.347,0.374,1.88,0.886
		c0.702,0.674,1.435,1.315,2.224,1.889c0.064,0.046,0.13,0.088,0.213,0.143c0.025-0.165,0.045-0.307,0.069-0.448
		c0.21-1.232,0.896-2.039,2.116-2.367c0.561-0.151,1.135-0.19,1.712-0.17c0.843,0.03,1.685,0.081,2.528,0.102
		c1.606,0.04,3.211,0.055,4.815-0.072c1.181-0.094,2.355-0.24,3.518-0.461c3.056-0.581,5.951-1.618,8.698-3.075
		c0.162-0.086,0.205-0.187,0.205-0.361c-0.004-7.642-0.002-15.283-0.006-22.925C73.787,28.927,73.76,28.204,73.61,27.495z
		 M46.894,50.917c-1.206,1.436-2.767,2.27-4.611,2.572c-0.422,0.069-0.853,0.089-1.115,0.115c-2.295-0.038-4.15-0.745-5.669-2.254
		c-1.049-1.042-1.715-2.298-1.93-3.764c-0.29-1.974,0.207-3.751,1.474-5.292c1.196-1.455,2.749-2.326,4.603-2.632
		c2.264-0.374,4.337,0.108,6.164,1.514c1.353,1.042,2.244,2.404,2.569,4.088C48.785,47.374,48.275,49.273,46.894,50.917z
		 M63.768,51.541c-1.245,1.172-2.739,1.833-4.438,2.003c-2.295,0.23-4.34-0.379-6.072-1.918c-1.312-1.165-2.098-2.633-2.266-4.388
		c-0.2-2.083,0.465-3.886,1.913-5.387c1.238-1.282,2.765-2.011,4.53-2.239c0.345-0.044,0.694-0.061,0.933-0.081
		c2.327,0.049,4.244,0.809,5.776,2.439c1.062,1.13,1.689,2.477,1.808,4.025C66.12,48.187,65.361,50.041,63.768,51.541z"/>
	<path d="M49.312,0C22.078,0,0,22.078,0,49.312s22.078,49.312,49.312,49.312s49.312-22.078,49.312-49.312S76.546,0,49.312,0z
		 M79.334,52.797c-0.91,1.096-1.94,2.071-3.042,2.971c-2.401,1.961-5.049,3.522-7.855,4.824c-0.551,0.256-1.112,0.49-1.668,0.735
		c-0.073,0.032-0.145,0.067-0.227,0.105c0.161,0.625,0.322,1.219,0.466,1.817c0.32,1.333,0.549,2.682,0.674,4.049
		c0.092,1.004,0.122,2.008,0.077,3.014c-0.103,2.275-0.564,4.466-1.595,6.514c-1.102,2.188-2.681,3.928-4.846,5.106
		c-1.632,0.888-3.375,1.318-5.239,1.196c-1.066-0.07-2.077-0.347-3.004-0.888c-1.526-0.892-2.425-2.232-2.777-3.951
		c-0.106-0.518-0.146-1.042-0.146-1.571c-0.002-3.772-0.006-7.544-0.01-11.316c0-0.072,0-0.144,0-0.242
		c-0.547-0.137-1.085-0.273-1.652-0.415c0,0.112,0,0.191,0,0.271c-0.009,3.788-0.02,7.576-0.025,11.365
		c-0.001,0.666-0.011,1.329-0.157,1.983c-0.512,2.297-1.917,3.769-4.144,4.471c-1.037,0.327-2.104,0.385-3.177,0.26
		c-2.694-0.313-4.895-1.57-6.692-3.564c-1.476-1.637-2.394-3.57-2.927-5.695c-0.304-1.215-0.459-2.451-0.504-3.703
		c-0.081-2.211,0.187-4.385,0.672-6.537c0.162-0.718,0.356-1.429,0.541-2.166c-0.068-0.031-0.146-0.069-0.226-0.103
		c-2.875-1.202-5.61-2.657-8.135-4.491c-1.448-1.051-2.801-2.21-3.999-3.543c-0.168-0.187-0.339-0.373-0.49-0.573
		c-0.321-0.427-0.501-0.904-0.481-1.447c0.033-0.88,0.719-1.389,1.568-1.164c0.293,0.078,0.558,0.217,0.806,0.389
		c0.187,0.129,0.372,0.261,0.558,0.39c0.051,0.035,0.106,0.063,0.193,0.114c0-0.13,0-0.224,0-0.319
		c0-7.901,0.001-15.802-0.001-23.703c0-1.014,0.189-1.985,0.643-2.893c0.775-1.55,1.968-2.615,3.66-3.08
		c0.456-0.125,0.922-0.174,1.395-0.174c3.658,0.001,7.317,0.001,10.975,0.001c10.781,0,21.561,0,32.342,0
		c2.939-0.102,5.073,2.001,5.694,4.428c0.146,0.569,0.204,1.146,0.203,1.734c-0.003,5.443-0.002,10.886-0.002,16.329
		c0,2.442,0,4.883,0,7.325c0,0.095,0,0.191,0,0.317c0.075-0.036,0.126-0.053,0.169-0.082c0.194-0.133,0.384-0.271,0.579-0.403
		c0.284-0.192,0.587-0.342,0.929-0.403c0.8-0.144,1.395,0.39,1.424,1.197C79.9,51.852,79.698,52.358,79.334,52.797z"/>
</g>
</svg>
