<?xml version="1.0" encoding="iso-8859-1"?>
<!-- Generator: Adobe Illustrator 21.0.0, SVG Export Plug-In . SVG Version: 6.00 Build 0)  -->
<svg version="1.1" xmlns="http://www.w3.org/2000/svg" xmlns:xlink="http://www.w3.org/1999/xlink" x="0px" y="0px"
	 viewBox="0 0 62.851 54.839" style="enable-background:new 0 0 62.851 54.839;" xml:space="preserve">
<g id="Layer_33">
	<path d="M0,14.921l2.553,3.348c0,0,5.264-4.15,7.019-2.075c1.755,2.075,8.454,27.126,10.69,31.748
		c1.952,4.053,7.336,9.41,13.24,5.584c5.901-3.826,25.523-20.579,29.036-40.363c3.51-19.778-23.613-15.635-26.487,1.596
		c7.181-4.311,11.013,1.752,7.339,8.616c-3.668,6.857-7.019,11.33-8.774,11.33c-1.752,0-3.099-4.589-5.106-12.61
		c-2.074-8.292-2.062-23.229-10.687-21.536C10.69,2.156,0,14.921,0,14.921z"/>
</g>
<g id="Layer_1">
</g>
</svg>
