<?xml version="1.0" encoding="iso-8859-1"?>
<!-- Generator: Adobe Illustrator 21.0.0, SVG Export Plug-In . SVG Version: 6.00 Build 0)  -->
<svg version="1.1" id="Layer_1" xmlns="http://www.w3.org/2000/svg" xmlns:xlink="http://www.w3.org/1999/xlink" x="0px" y="0px"
	 viewBox="0 0 66.459 62.465" style="enable-background:new 0 0 66.459 62.465;" xml:space="preserve">
<g>
	<g>
		<path d="M33.873,0H33.87c-0.057,0-0.111,0-0.162,0.001l0,0c0,0-1.065,0.011-1.15,0.011c-2.742,0-12.033,0.764-16.417,10.592
			c-1.474,3.306-1.121,8.922-0.837,13.435c0.033,0.532,0.069,1.084,0.099,1.618c-0.227,0.126-0.641,0.282-1.293,0.282
			c-0.87,0-1.899-0.275-3.056-0.817c-0.307-0.144-0.662-0.216-1.053-0.216c-1.356,0-2.978,0.892-3.23,2.222
			c-0.182,0.957,0.246,2.354,3.324,3.57c0.278,0.11,0.612,0.216,0.964,0.327c1.272,0.404,3.194,1.014,3.715,2.242
			c0.27,0.637,0.162,1.456-0.32,2.434c-0.011,0.022-0.021,0.044-0.031,0.067c-0.169,0.394-4.237,9.667-13.269,11.154
			c-0.695,0.115-1.191,0.734-1.152,1.437c0.012,0.209,0.061,0.417,0.147,0.619c0.678,1.585,3.538,2.746,8.744,3.554
			c0.174,0.235,0.355,1.067,0.466,1.573c0.109,0.5,0.221,1.015,0.381,1.559c0.157,0.535,0.565,1.173,1.612,1.173
			c0.423,0,0.923-0.098,1.501-0.211c0.867-0.169,2.055-0.401,3.542-0.401c0.824,0,1.679,0.072,2.54,0.214
			c1.68,0.28,3.108,1.289,4.76,2.457c2.367,1.674,5.048,3.569,9.123,3.569c0.112,0,0.224-0.003,0.336-0.012
			c0.132,0.006,0.304,0.012,0.487,0.012c4.076,0,6.756-1.895,9.122-3.568c1.656-1.17,3.083-2.179,4.763-2.458
			c0.859-0.143,1.714-0.214,2.539-0.214c1.419,0,2.541,0.18,3.542,0.376c0.627,0.123,1.132,0.185,1.501,0.185l0.039,0.001h0.038
			c0.774,0,1.32-0.409,1.537-1.151c0.157-0.532,0.269-1.035,0.381-1.543c0.11-0.505,0.291-1.333,0.464-1.567
			c5.208-0.808,8.067-1.968,8.743-3.546c0.087-0.202,0.137-0.412,0.149-0.622c0.039-0.703-0.457-1.322-1.152-1.436
			c-9.036-1.489-13.101-10.761-13.27-11.154c-0.01-0.023-0.02-0.045-0.031-0.067c-0.482-0.978-0.589-1.797-0.319-2.433
			c0.521-1.229,2.443-1.839,3.714-2.242c0.356-0.113,0.69-0.219,0.965-0.328c2.253-0.89,3.383-1.982,3.359-3.247
			c-0.019-0.994-0.793-1.88-2.023-2.32l-0.004-0.001c-0.414-0.172-0.905-0.265-1.386-0.265c-0.329,0-0.817,0.045-1.272,0.258
			c-1.071,0.502-2.034,0.775-2.865,0.812c-0.551-0.026-0.911-0.164-1.116-0.278c0.026-0.458,0.055-0.929,0.086-1.422l0.012-0.191
			c0.285-4.516,0.639-10.136-0.837-13.445C45.934,0.765,36.623,0,33.873,0L33.873,0z"/>
	</g>
</g>
</svg>
