<?xml version="1.0" encoding="iso-8859-1"?>
<!-- Generator: Adobe Illustrator 21.0.0, SVG Export Plug-In . SVG Version: 6.00 Build 0)  -->
<svg version="1.1" id="Layer_1" xmlns="http://www.w3.org/2000/svg" xmlns:xlink="http://www.w3.org/1999/xlink" x="0px" y="0px"
	 viewBox="0 0 69.255 36.901" style="enable-background:new 0 0 69.255 36.901;" xml:space="preserve">
<g>
	<g>
		<path d="M1.247,17.332c-0.263,0-0.477,0.211-0.497,0.49L0,27.124l0.75,9c0.019,0.279,0.234,0.489,0.497,0.489
			s0.477-0.211,0.5-0.489l0.851-9l-0.851-9.305C1.725,17.543,1.511,17.332,1.247,17.332z"/>
		<path d="M6.09,36.198L6.09,36.198L6.09,36.198z"/>
		<path d="M6.09,18.491c-0.019-0.318-0.266-0.558-0.568-0.558c-0.308,0-0.552,0.24-0.571,0.565l-0.707,8.627l0.707,9.074
			c0.019,0.321,0.263,0.565,0.571,0.565c0.302,0,0.549-0.244,0.568-0.565l0.805-9.074L6.09,18.491z"/>
		<path d="M10.138,9.215c-0.386,0-0.701,0.315-0.717,0.711l-0.62,17.253l0.62,9.016c0.016,0.393,0.331,0.707,0.717,0.707
			c0.38,0,0.698-0.315,0.714-0.711v0.004l0.704-9.016L10.852,9.926C10.836,9.53,10.518,9.215,10.138,9.215z"/>
		<path d="M15.828,7.813c-0.016-0.48-0.393-0.857-0.86-0.857c-0.471,0-0.85,0.377-0.86,0.857l-0.539,19.321l0.539,8.87
			c0.01,0.474,0.389,0.851,0.86,0.851c0.467,0,0.844-0.376,0.86-0.857l0.604-8.864L15.828,7.813z"/>
		<polygon points="15.828,35.997 15.828,35.997 15.828,36.004 		"/>
		<path d="M19.853,7.995c-0.552,0-0.993,0.441-1.006,1.003l-0.448,18.139l0.451,8.728c0.01,0.555,0.451,0.997,1.003,0.997
			s0.997-0.441,1.006-1.003v0.007l0.506-8.727L20.859,8.997C20.849,8.436,20.405,7.995,19.853,7.995z"/>
		<path d="M25.393,2.613c-0.172-0.107-0.373-0.165-0.587-0.165c-0.273,0-0.526,0.098-0.724,0.263
			c-0.257,0.211-0.422,0.529-0.425,0.883l-0.003,0.12l-0.47,23.426l0.24,4.33l0.234,4.216c0.007,0.623,0.523,1.139,1.148,1.139
			c0.627,0,1.143-0.516,1.152-1.149v0.009l0,0l0.509-8.546l0,0L25.958,3.593C25.952,3.178,25.724,2.811,25.393,2.613z"/>
		<path d="M58.805,15.995c-1.432,0-2.798,0.289-4.044,0.811C53.93,7.388,46.03,0,36.398,0c-2.359,0-4.658,0.461-6.689,1.246
			c-0.789,0.305-0.997,0.62-1.006,1.23v33.172c0.009,0.639,0.505,1.136,1.129,1.198c0.026,0.004,28.973,0,28.973,0
			c5.774,0,10.451-4.625,10.451-10.399C69.256,20.675,64.579,15.995,58.805,15.995z"/>
	</g>
</g>
</svg>
