<?xml version="1.0" encoding="iso-8859-1"?>
<!-- Generator: Adobe Illustrator 21.0.0, SVG Export Plug-In . SVG Version: 6.00 Build 0)  -->
<svg version="1.1" id="Layer_1" xmlns="http://www.w3.org/2000/svg" xmlns:xlink="http://www.w3.org/1999/xlink" x="0px" y="0px"
	 viewBox="0 0 65.716 37.495" style="enable-background:new 0 0 65.716 37.495;" xml:space="preserve">
<path d="M65.37,33.86c-0.08-0.171-0.154-0.314-0.223-0.428c-1.141-2.053-3.319-4.574-6.535-7.562l-0.069-0.068l-0.034-0.035
	l-0.034-0.033h-0.034c-1.46-1.392-2.384-2.327-2.771-2.807c-0.707-0.911-0.867-1.835-0.479-2.77c0.275-0.707,1.301-2.201,3.08-4.483
	c0.935-1.208,1.676-2.177,2.224-2.909c3.946-5.246,5.656-8.598,5.132-10.059l-0.206-0.342C65.284,2.158,64.93,1.97,64.36,1.799
	s-1.3-0.198-2.189-0.085l-9.854,0.07c-0.228-0.023-0.456-0.017-0.685,0.016c-0.228,0.035-0.376,0.069-0.445,0.103
	c-0.069,0.035-0.125,0.063-0.171,0.085l-0.137,0.103c-0.114,0.068-0.239,0.188-0.376,0.36c-0.137,0.171-0.252,0.37-0.342,0.599
	c-1.072,2.76-2.292,5.326-3.661,7.699c-0.844,1.414-1.62,2.641-2.326,3.678c-0.707,1.039-1.3,1.803-1.779,2.292
	c-0.479,0.49-0.913,0.885-1.3,1.18c-0.388,0.298-0.685,0.422-0.889,0.377c-0.206-0.045-0.4-0.091-0.582-0.138
	c-0.319-0.205-0.577-0.484-0.77-0.838c-0.194-0.353-0.325-0.798-0.394-1.334c-0.068-0.536-0.109-0.998-0.119-1.386
	c-0.012-0.388-0.006-0.935,0.017-1.642c0.023-0.707,0.034-1.185,0.034-1.437c0-0.866,0.017-1.807,0.052-2.823
	c0.034-1.015,0.063-1.819,0.085-2.412c0.023-0.592,0.034-1.22,0.034-1.882c0-0.66-0.04-1.18-0.12-1.557
	c-0.08-0.376-0.2-0.74-0.359-1.095c-0.16-0.353-0.394-0.627-0.702-0.82c-0.308-0.194-0.69-0.348-1.146-0.462
	c-1.21-0.274-2.749-0.421-4.619-0.445c-4.243-0.044-6.969,0.23-8.178,0.822c-0.479,0.252-0.913,0.593-1.3,1.027
	c-0.411,0.502-0.468,0.777-0.171,0.82c1.369,0.206,2.338,0.697,2.908,1.472l0.206,0.41c0.159,0.298,0.319,0.822,0.479,1.574
	c0.16,0.753,0.262,1.585,0.308,2.498c0.114,1.665,0.114,3.09,0,4.277c-0.114,1.187-0.222,2.11-0.325,2.77
	c-0.103,0.662-0.257,1.197-0.462,1.608c-0.206,0.412-0.342,0.663-0.411,0.754c-0.069,0.091-0.125,0.148-0.171,0.171
	c-0.297,0.113-0.604,0.171-0.924,0.171s-0.707-0.16-1.164-0.48c-0.456-0.318-0.93-0.758-1.42-1.317
	c-0.491-0.558-1.043-1.34-1.66-2.344c-0.616-1.003-1.255-2.189-1.916-3.558l-0.547-0.993c-0.342-0.638-0.81-1.568-1.403-2.788
	c-0.593-1.22-1.118-2.4-1.574-3.542c-0.183-0.478-0.456-0.843-0.821-1.095L12.9,2.159c-0.114-0.091-0.297-0.188-0.548-0.29
	c-0.252-0.103-0.513-0.177-0.787-0.223L2.19,1.714c-0.958,0-1.608,0.218-1.95,0.651L0.103,2.57C0.034,2.685,0,2.868,0,3.118
	C0,3.37,0.069,3.677,0.206,4.041c1.369,3.217,2.857,6.319,4.465,9.306c1.609,2.989,3.005,5.396,4.192,7.22
	c1.186,1.826,2.395,3.547,3.627,5.167s2.047,2.657,2.446,3.113c0.399,0.457,0.712,0.799,0.941,1.027l0.855,0.822
	c0.547,0.547,1.352,1.203,2.412,1.967c1.061,0.765,2.235,1.517,3.524,2.257c1.288,0.742,2.789,1.345,4.499,1.814
	c1.711,0.468,3.376,0.656,4.995,0.564h3.935c0.799-0.068,1.403-0.318,1.813-0.753l0.137-0.171c0.091-0.136,0.177-0.348,0.257-0.632
	c0.079-0.285,0.12-0.599,0.12-0.941c-0.024-0.981,0.051-1.866,0.222-2.652c0.171-0.787,0.365-1.38,0.582-1.78
	c0.217-0.398,0.461-0.735,0.736-1.009c0.274-0.274,0.467-0.438,0.582-0.496c0.114-0.056,0.206-0.096,0.274-0.12
	c0.547-0.182,1.191-0.005,1.933,0.53c0.741,0.537,1.437,1.197,2.087,1.985c0.65,0.787,1.431,1.67,2.344,2.652
	c0.912,0.981,1.71,1.71,2.395,2.189l0.685,0.412c0.456,0.273,1.049,0.524,1.779,0.753c0.73,0.227,1.369,0.285,1.916,0.171
	l8.759-0.138c0.867,0,1.54-0.142,2.019-0.428c0.479-0.283,0.764-0.599,0.855-0.941s0.097-0.728,0.017-1.163
	C65.529,34.333,65.449,34.031,65.37,33.86z"/>
</svg>
