<?xml version="1.0" encoding="iso-8859-1"?>
<!-- Generator: Adobe Illustrator 21.0.0, SVG Export Plug-In . SVG Version: 6.00 Build 0)  -->
<svg version="1.1" id="Layer_1" xmlns="http://www.w3.org/2000/svg" xmlns:xlink="http://www.w3.org/1999/xlink" x="0px" y="0px"
	 viewBox="0 0 55.79 39.574" style="enable-background:new 0 0 55.79 39.574;" xml:space="preserve">
<path d="M55.092,7.882c-0.529-4.177-2.942-6.797-7.225-7.184C42.963,0.255,32.347,0,27.423,0C17.351,0,12.85,0.246,8.087,0.739
	C3.548,1.208,1.561,3.225,0.78,7.389C0.233,10.307,0,13.04,0,19.499c0,5.802,0.274,9.451,0.698,12.521
	c0.583,4.216,3.477,6.585,7.718,6.938c4.934,0.411,14.818,0.616,19.705,0.616c4.722,0,15.349-0.246,20.074-0.78
	c4.229-0.478,6.24-2.737,6.897-6.897c0,0,0.698-4.557,0.698-12.439C55.79,14.97,55.462,10.796,55.092,7.882z M21.963,27.628V11.59
	l15.271,7.937L21.963,27.628z"/>
</svg>
