<?xml version="1.0" encoding="utf-8"?>
<!-- Generator: Adobe Illustrator 22.1.0, SVG Export Plug-In . SVG Version: 6.00 Build 0)  -->
<svg version="1.1" id="Слой_2" xmlns="http://www.w3.org/2000/svg" xmlns:xlink="http://www.w3.org/1999/xlink" x="0px" y="0px"
	 viewBox="0 0 101 101" style="enable-background:new 0 0 101 101;" xml:space="preserve">
<title>Artboard 2 copy 10 копия 12</title>
<path d="M60.2,64.5c-0.4-0.7-1.4-0.9-2.1-0.5l-9.3,5.7c-3.1,1.8-7.1,0.9-9.1-2L27.1,47.2c-1.8-2.9-0.9-6.8,2-8.6l0,0l9.6-6
	c0.7-0.4,0.9-1.4,0.5-2.1l-8-13c-0.4-0.7-1.4-0.9-2.1-0.5l-9.6,6c-10.7,6.7-10.3,24.1,1,42.4c5.2,8.4,11.7,15.1,18.3,18.8
	c3.4,2,7.3,3.2,11.3,3.3c2.9,0,5.8-0.8,8.3-2.3l9.2-5.7c0.7-0.4,0.9-1.4,0.5-2.1L60.2,64.5z M56.9,82.7c-5.8,3.6-12.2,1.4-16.6-1
	C34.1,78.1,28,71.8,23,63.9c-10.3-16.8-11.1-32.5-1.8-38.2l8.4-5.2l6.4,10.4L27.6,36l0,0c-4.3,2.7-5.7,8.4-3,12.8l12.6,20.5
	c2.9,4.4,8.7,5.7,13.2,3l8-4.9l6.4,10.4L56.9,82.7z"/>
<path d="M48.7,33.1c8.2,0.5,14.4,7.5,13.9,15.6c-0.1,1.3-0.3,2.6-0.7,3.8c-0.3,0.8,0.2,1.6,1,1.9c0.8,0.3,1.6-0.2,1.9-0.9
	c3.1-9.3-1.9-19.4-11.2-22.5c-1.5-0.5-3-0.8-4.6-0.9c-0.8-0.1-1.5,0.5-1.6,1.4c0,0,0,0,0,0C47.3,32.4,47.9,33.1,48.7,33.1
	C48.7,33.1,48.7,33.1,48.7,33.1z"/>
<path d="M51.1,19.2c-0.8-0.1-1.6,0.5-1.7,1.3c-0.1,0.8,0.5,1.6,1.3,1.7C65,23.8,75.2,36.7,73.5,50.8c-0.2,1.4-0.4,2.8-0.8,4.2
	c-0.3,0.8,0.2,1.6,0.9,1.9c0.8,0.3,1.6-0.2,1.9-0.9c0,0,0-0.1,0-0.1c4.4-15.3-4.5-31.3-19.8-35.7C54.3,19.7,52.7,19.4,51.1,19.2z"/>
<path d="M80.3,26.8c-6.1-9.4-16-15.7-27.1-17.2c-0.8-0.1-1.6,0.5-1.7,1.3c-0.1,0.8,0.5,1.6,1.3,1.7c19.5,2.7,33.1,20.8,30.4,40.3
	c-0.2,1.5-0.5,2.9-0.9,4.3c-0.2,0.8,0.3,1.6,1.1,1.8c0.8,0.2,1.6-0.3,1.8-1.1l0,0C88.1,47.3,86.3,36,80.3,26.8z"/>
</svg>
