<?xml version="1.0" encoding="iso-8859-1"?>
<!-- Generator: Adobe Illustrator 21.0.0, SVG Export Plug-In . SVG Version: 6.00 Build 0)  -->
<svg version="1.1" id="Layer_1" xmlns="http://www.w3.org/2000/svg" xmlns:xlink="http://www.w3.org/1999/xlink" x="0px" y="0px"
	 viewBox="0 0 68.68 79.495" style="enable-background:new 0 0 68.68 79.495;" xml:space="preserve">
<path d="M24.406,77.893c4.017,1.044,8.23,1.601,12.575,1.601c4.665,0,12.267-1.479,12.267-1.479l-0.064-3.602
	c0,0,0.061-7.032,0.061-13.716c0-4.664-1.599-7.716-3.395-9.259c11.139-1.238,22.829-5.465,22.829-24.673
	c0-5.458-1.935-9.922-5.14-13.417c0.514-1.265,2.23-6.349-0.498-13.232c0,0-4.19-1.344-13.736,5.126
	c-3.994-1.109-8.272-1.664-12.517-1.683c-4.252,0.019-8.53,0.574-12.518,1.683c-9.552-6.47-13.75-5.126-13.75-5.126
	C7.8,7,9.516,12.084,10.03,13.348c-3.198,3.495-5.146,7.958-5.146,13.417c0,19.16,11.672,23.45,22.775,24.712
	c-1.428,1.25-2.72,3.453-3.174,6.684c-2.849,1.28-10.091,3.486-14.551-4.154c0,0-2.641-4.799-7.658-5.153
	c0,0-4.883-0.063-0.344,3.039c0,0,3.278,1.538,5.551,7.314c0,0,2.935,9.724,16.843,6.703c0.024,4.173,0.068,7.317,0.068,8.504"/>
</svg>
