<?xml version="1.0" encoding="iso-8859-1"?>
<!-- Generator: Adobe Illustrator 21.0.0, SVG Export Plug-In . SVG Version: 6.00 Build 0)  -->
<svg version="1.1" id="Layer_1" xmlns="http://www.w3.org/2000/svg" xmlns:xlink="http://www.w3.org/1999/xlink" x="0px" y="0px"
	 viewBox="0 0 49 49" style="enable-background:new 0 0 49 49;" xml:space="preserve">
<path d="M42.874,0H6.125C2.742,0,0,2.744,0,6.125v36.749c0,3.383,2.744,6.125,6.125,6.125h36.749c3.383,0,6.125-2.744,6.125-6.125
	V6.125C48.999,2.742,46.255,0,42.874,0z M21.314,38.406c0,1.622-1.316,2.938-2.939,2.938H9.309c-1.623,0-2.939-1.315-2.939-2.938
	V10.594c0-1.622,1.316-2.938,2.939-2.938h9.066c1.623,0,2.939,1.315,2.939,2.938V38.406z M42.629,26.152
	c0,1.625-1.316,2.941-2.939,2.941h-9.066c-1.623,0-2.939-1.317-2.939-2.941V10.597c0-1.625,1.316-2.941,2.939-2.941h9.066
	c1.623,0,2.939,1.317,2.939,2.941V26.152z"/>
</svg>
