<?xml version="1.0" encoding="iso-8859-1"?>
<!-- Generator: Adobe Illustrator 21.0.0, SVG Export Plug-In . SVG Version: 6.00 Build 0)  -->
<svg version="1.1" id="Layer_1" xmlns="http://www.w3.org/2000/svg" xmlns:xlink="http://www.w3.org/1999/xlink" x="0px" y="0px"
	 viewBox="0 0 98.624 98.624" style="enable-background:new 0 0 98.624 98.624;" xml:space="preserve">
<path d="M49.312,0C22.078,0,0,22.078,0,49.312s22.078,49.312,49.312,49.312s49.312-22.078,49.312-49.312S76.546,0,49.312,0z
	 M14.071,58.902c-0.029,0.194-0.169,0.331-0.341,0.331c-0.179,0-0.318-0.137-0.341-0.331l-0.623-4.638l0.623-4.722
	c0.023-0.194,0.162-0.331,0.341-0.331c0.172,0,0.312,0.136,0.341,0.331l0.733,4.722L14.071,58.902z M18.348,62.861
	c-0.023,0.279-0.237,0.489-0.5,0.489s-0.477-0.21-0.497-0.489l-0.75-9l0.75-9.302c0.02-0.279,0.234-0.49,0.497-0.49
	s0.477,0.211,0.5,0.487l0.851,9.305L18.348,62.861z M22.691,62.935c-0.019,0.321-0.266,0.565-0.568,0.565
	c-0.308,0-0.552-0.244-0.571-0.565l-0.707-9.074l0.707-8.627c0.019-0.325,0.263-0.565,0.571-0.565c0.302,0,0.549,0.24,0.568,0.558
	l0.805,8.633L22.691,62.935z M27.453,62.932v-0.004c-0.016,0.396-0.334,0.711-0.714,0.711c-0.386,0-0.701-0.314-0.717-0.707
	l-0.62-9.016l0.62-17.253c0.016-0.396,0.331-0.711,0.717-0.711c0.38,0,0.698,0.315,0.714,0.711l0.704,17.253L27.453,62.932z
	 M32.429,62.735c-0.016,0.48-0.393,0.857-0.86,0.857c-0.471,0-0.85-0.377-0.86-0.851l-0.539-8.87l0.539-19.321
	c0.01-0.48,0.389-0.857,0.86-0.857c0.467,0,0.844,0.377,0.86,0.857l0.604,19.321L32.429,62.735z M37.46,62.601v-0.007
	c-0.01,0.561-0.455,1.003-1.006,1.003s-0.993-0.441-1.003-0.997L35,53.872l0.448-18.139c0.013-0.561,0.454-1.003,1.006-1.003
	s0.996,0.441,1.005,1.001l0.506,18.142L37.46,62.601z M42.56,62.422v-0.009c-0.009,0.632-0.525,1.149-1.152,1.149
	c-0.626,0-1.142-0.516-1.148-1.14l-0.234-4.216l-0.24-4.33l0.47-23.426l0.003-0.12c0.003-0.354,0.169-0.672,0.425-0.883
	c0.198-0.165,0.451-0.263,0.724-0.263c0.214,0,0.415,0.058,0.587,0.165c0.331,0.198,0.559,0.565,0.566,0.98l0.509,23.546
	L42.56,62.422z M75.406,63.584c0,0-28.947,0.004-28.973,0c-0.624-0.062-1.12-0.558-1.129-1.198V29.214
	c0.009-0.61,0.217-0.925,1.006-1.23c2.031-0.786,4.33-1.246,6.689-1.246c9.632,0,17.532,7.387,18.363,16.806
	c1.246-0.523,2.612-0.811,4.044-0.811c5.774,0,10.451,4.68,10.452,10.454C85.857,58.959,81.18,63.584,75.406,63.584z"/>
</svg>
