<?xml version="1.0" encoding="iso-8859-1"?>
<!-- Generator: Adobe Illustrator 21.0.0, SVG Export Plug-In . SVG Version: 6.00 Build 0)  -->
<svg version="1.1" id="Layer_1" xmlns="http://www.w3.org/2000/svg" xmlns:xlink="http://www.w3.org/1999/xlink" x="0px" y="0px"
	 viewBox="0 0 98.624 98.624" style="enable-background:new 0 0 98.624 98.624;" xml:space="preserve">
<path d="M49.312,0C22.078,0,0,22.078,0,49.312s22.078,49.312,49.312,49.312s49.312-22.078,49.312-49.312S76.546,0,49.312,0z
	 M53.646,79.863c-11.453,0.227-15.791-9.54-15.791-16.412V43.368h-5.321v-7.939c7.973-3.359,9.893-11.769,10.344-16.561
	c0.029-0.33,0.25-0.458,0.377-0.458h7.702v15.655h10.518v9.302H50.918v19.132c0.037,2.605,0.853,6.192,5.06,6.06
	c1.396-0.043,3.266-0.517,4.243-1.063l2.529,8.767C61.799,77.892,57.507,79.786,53.646,79.863z"/>
</svg>
