<?xml version="1.0" encoding="iso-8859-1"?>
<!-- Generator: Adobe Illustrator 21.1.0, SVG Export Plug-In . SVG Version: 6.00 Build 0)  -->
<svg version="1.1" id="Layer_1" xmlns="http://www.w3.org/2000/svg" xmlns:xlink="http://www.w3.org/1999/xlink" x="0px" y="0px"
	 viewBox="0 0 100 100" style="enable-background:new 0 0 100 100;" xml:space="preserve">
<g>
	<polygon points="46.058,79.154 52.89,79.154 52.89,44.374 46.058,41.952 	"/>
	<path d="M66.355,27.875c-0.09,4.992-1.626,7.624-4.88,7.624c-3.344,0-6.688-1.634-11.206-3.812
		c-6.145-2.905-9.037-4.085-12.833-4.085c-6.235,0-11.025,4.629-10.754,13.706h5.422c0.091-5.445,2.079-7.714,5.332-7.714
		c3.254,0,6.598,1.905,10.845,3.994c6.235,2.905,9.489,3.994,13.104,3.994c5.602,0,10.754-3.631,10.303-13.706H66.355z"/>
	<path d="M50,0C22.43,0,0,22.43,0,50c0,27.57,22.43,50,50,50s50-22.43,50-50C100,22.43,77.57,0,50,0z M50,96.77
		C24.211,96.77,3.23,75.789,3.23,50C3.23,24.211,24.211,3.23,50,3.23S96.77,24.211,96.77,50C96.77,75.789,75.789,96.77,50,96.77z"/>
</g>
</svg>
