<?xml version="1.0" encoding="iso-8859-1"?>
<!-- Generator: Adobe Illustrator 21.0.0, SVG Export Plug-In . SVG Version: 6.00 Build 0)  -->
<svg version="1.1" id="Layer_1" xmlns="http://www.w3.org/2000/svg" xmlns:xlink="http://www.w3.org/1999/xlink" x="0px" y="0px"
	 viewBox="0 0 98.624 98.624" style="enable-background:new 0 0 98.624 98.624;" xml:space="preserve">
<g>
	<path d="M49.42,27.081c-1.157,0-2.284,0.129-3.369,0.371c1.974,1.055,3.317,3.135,3.317,5.53c0,3.461-2.806,6.267-6.267,6.267
		c-3.264,0-5.944-2.496-6.239-5.683c-1.789,2.516-2.841,5.592-2.841,8.915c0,8.505,6.894,15.399,15.399,15.399
		c8.505,0,15.399-6.895,15.399-15.399C64.819,33.975,57.924,27.081,49.42,27.081z"/>
	<path d="M49.312,0C22.078,0,0,22.078,0,49.312s22.078,49.312,49.312,49.312s49.312-22.078,49.312-49.312S76.546,0,49.312,0z
		 M49.47,81.676c-5.958,0-25.425-21.901-25.425-39.303c0-14.042,11.383-25.425,25.425-25.425s25.109,11.383,25.109,25.425
		C74.579,59.451,55.112,81.676,49.47,81.676z"/>
</g>
</svg>
