<?xml version="1.0" encoding="iso-8859-1"?>
<!-- Generator: Adobe Illustrator 21.0.0, SVG Export Plug-In . SVG Version: 6.00 Build 0)  -->
<svg version="1.1" id="Layer_1" xmlns="http://www.w3.org/2000/svg" xmlns:xlink="http://www.w3.org/1999/xlink" x="0px" y="0px"
	 viewBox="0 0 53.394 63.006" style="enable-background:new 0 0 53.394 63.006;" xml:space="preserve">
<path d="M50.908,18.16c-0.756-0.861-1.696-1.572-2.79-2.152c-0.06,0.374-0.124,0.754-0.201,1.147
	C45.336,30.413,36.5,34.998,25.215,34.998h-5.746c-1.379,0-2.543,1.004-2.757,2.365l-2.588,16.405l5.944-37.696
	c0.13-0.819,0.656-1.49,1.364-1.83c0.322-0.153,0.681-0.239,1.058-0.239h15.351c1.818,0,3.513,0.118,5.063,0.368
	c0.444,0.071,0.875,0.153,1.293,0.247c0.418,0.092,0.824,0.197,1.218,0.312c0.197,0.058,0.39,0.117,0.58,0.18
	c0.762,0.254,1.471,0.551,2.123,0.898c0.769-4.903-0.005-8.237-2.656-11.257C42.543,1.426,37.271,0,30.524,0H10.942
	C9.563,0,8.391,1.004,8.174,2.365L0.021,54.071c-0.162,1.021,0.627,1.943,1.659,1.943h12.09l-0.835,5.292
	c-0.141,0.892,0.549,1.701,1.452,1.701h10.19c1.206,0,2.233-0.878,2.421-2.069l0.099-0.519l1.921-12.172l0.124-0.673
	c0.188-1.19,1.215-2.069,2.421-2.069h1.525c9.871,0,17.601-4.01,19.859-15.609C53.89,25.049,53.402,21.002,50.908,18.16z"/>
</svg>
