<?xml version="1.0" encoding="iso-8859-1"?>
<!-- Generator: Adobe Illustrator 21.0.0, SVG Export Plug-In . SVG Version: 6.00 Build 0)  -->
<svg version="1.1" id="Layer_1" xmlns="http://www.w3.org/2000/svg" xmlns:xlink="http://www.w3.org/1999/xlink" x="0px" y="0px"
	 viewBox="0 0 66.263 41.23" style="enable-background:new 0 0 66.263 41.23;" xml:space="preserve">
<g>
	<polygon points="59.841,5.836 59.841,1.712 43.237,1.712 43.237,5.836 59.84,5.836 	"/>
	<path d="M66,21.49c-0.363-2.316-1.143-4.35-2.354-6.108c-1.34-1.997-3.04-3.45-5.098-4.373c-2.065-0.922-4.378-1.381-6.945-1.381
		c-4.331,0-7.844,1.361-10.566,4.096c-2.712,2.729-4.064,6.651-4.064,11.774c0,5.464,1.506,9.402,4.503,11.831
		c3.008,2.42,6.473,3.634,10.404,3.634c4.759,0,8.465-1.44,11.107-4.312c1.706-1.807,2.655-3.585,2.861-5.338h-7.882
		c-0.457,0.861-0.986,1.543-1.586,2.026c-1.101,0.911-2.531,1.355-4.285,1.355c-1.664,0-3.085-0.364-4.257-1.109
		c-1.944-1.187-2.968-3.263-3.087-6.231h21.503C66.291,24.796,66.201,22.839,66,21.49z M44.937,22.26
		c0.28-1.928,0.962-3.452,2.059-4.572c1.089-1.123,2.622-1.694,4.607-1.694c1.824,0,3.352,0.534,4.576,1.599
		c1.234,1.061,1.919,2.615,2.064,4.667H44.937z"/>
	<path d="M27.431,19.104c1.385-0.705,2.431-1.487,3.139-2.346c1.273-1.532,1.905-3.549,1.905-6.07c0-2.443-0.624-4.545-1.885-6.296
		C28.489,1.536,24.931,0.082,19.912,0H0v41.23h18.568c2.089,0,4.029-0.187,5.821-0.557c1.786-0.37,3.34-1.061,4.653-2.07
		c1.166-0.872,2.136-1.955,2.917-3.238c1.228-1.939,1.832-4.133,1.832-6.579c0-2.365-0.536-4.38-1.607-6.039
		C31.12,21.082,29.529,19.873,27.431,19.104z M9.508,7.161h7.674c1.972,0,3.597,0.219,4.867,0.645
		c1.478,0.612,2.215,1.885,2.215,3.803c0,1.736-0.556,2.945-1.672,3.625c-1.117,0.681-2.566,1.022-4.359,1.022H9.509H9.508V7.161z
		 M22.397,33.347c-1,0.489-2.385,0.723-4.175,0.723H9.509V23.082h8.85c1.767,0.017,3.146,0.247,4.123,0.699
		c1.747,0.795,2.622,2.275,2.622,4.417C25.104,30.737,24.2,32.448,22.397,33.347z"/>
</g>
</svg>
