<?xml version="1.0" encoding="iso-8859-1"?>
<!-- Generator: Adobe Illustrator 21.0.0, SVG Export Plug-In . SVG Version: 6.00 Build 0)  -->
<svg version="1.1" id="Layer_1" xmlns="http://www.w3.org/2000/svg" xmlns:xlink="http://www.w3.org/1999/xlink" x="0px" y="0px"
	 viewBox="0 0 61.07 60.711" style="enable-background:new 0 0 61.07 60.711;" xml:space="preserve">
<g>
	<polygon points="26.947,60.713 26.946,60.713 26.945,60.713 	"/>
	<path d="M60.868,32.04l-0.066-0.22c-0.714-2.113-2.737-3.52-5.04-3.502c-0.58,0.005-1.157,0.101-1.716,0.287l-5.996,2.027
		L44.178,19.13v-0.001c5.65-1.929,5.767-1.969,5.768-1.969c2.407-0.809,4.417-3.332,3.608-6.159l-0.065-0.209
		c-0.729-2.164-2.712-3.552-5.052-3.534c-0.524,0.003-1.053,0.08-1.579,0.231l-5.931,1.987l-1.97-5.853
		c-0.454-1.345-1.404-2.433-2.675-3.066c-0.76-0.375-1.567-0.563-2.4-0.557c-0.561,0.005-1.119,0.1-1.658,0.281
		c-2.695,0.908-4.198,3.759-3.416,6.492l0.072,0.241l1.966,5.839L19.47,16.664l-1.96-5.823c-0.735-2.182-2.777-3.636-5.083-3.618
		c-0.56,0.005-1.116,0.099-1.653,0.277c-2.694,0.909-4.193,3.76-3.413,6.493c0.024,0.081,0.049,0.16,0.074,0.239l1.956,5.81
		l-5.764,1.931c-2.696,0.909-4.199,3.748-3.424,6.463c0.023,0.08,0.046,0.16,0.074,0.242c0.712,2.119,2.642,3.477,4.921,3.46
		c0.591-0.005,1.181-0.104,1.756-0.299c2.008-0.686,3.922-1.339,5.747-1.962v0.001h0.001l3.84,11.409l-5.729,1.937
		c-2.705,0.91-4.207,3.78-3.42,6.526c0.023,0.08,0.048,0.16,0.075,0.24c0.703,2.089,2.64,3.428,4.937,3.411v0.001
		c0.615-0.005,1.232-0.112,1.836-0.314l5.626-1.924l1.995,5.928c0.735,2.184,2.778,3.638,5.084,3.621
		c0.56-0.005,1.113-0.098,1.649-0.277c2.698-0.909,4.198-3.762,3.416-6.497c-0.022-0.079-0.046-0.161-0.073-0.236l-2.012-5.978
		l11.355-3.883l2.031,6.033c0.735,2.181,2.777,3.636,5.083,3.618c0.561-0.005,1.116-0.098,1.65-0.276
		c2.695-0.908,4.195-3.761,3.384-6.599l-0.042-0.138l-2.046-6.078l6.299-2.154c0,0,1.952-0.848,2.571-1.811
		C61.039,35.142,61.286,33.501,60.868,32.04z M26.612,37.881l-3.85-11.439v-0.001c4.484-1.531,8.228-2.809,11.355-3.877
		l3.862,11.473L26.612,37.881z"/>
</g>
</svg>
