<?xml version="1.0" encoding="iso-8859-1"?>
<!-- Generator: Adobe Illustrator 21.0.0, SVG Export Plug-In . SVG Version: 6.00 Build 0)  -->
<svg version="1.1" id="Layer_1" xmlns="http://www.w3.org/2000/svg" xmlns:xlink="http://www.w3.org/1999/xlink" x="0px" y="0px"
	 viewBox="0 0 62.2 41.376" style="enable-background:new 0 0 62.2 41.376;" xml:space="preserve">
<g>
	<polygon points="43.412,20.732 62.2,39.52 62.2,1.945 	"/>
	<path d="M32.905,27.53L60.422,0.013C60.4,0.012,60.381,0,60.359,0H1.92l27.528,27.528C30.365,28.448,31.988,28.447,32.905,27.53z"
		/>
	<path d="M34.761,29.383c-0.955,0.953-2.226,1.48-3.583,1.48c-1.358,0-2.631-0.525-3.585-1.48L20.57,22.36L1.603,41.327
		c0.082,0.011,0.155,0.048,0.24,0.048h58.504L41.559,22.587L34.761,29.383z"/>
	<path d="M0.008,1.8C0.008,1.815,0,1.827,0,1.841v37.377l18.713-18.713L0.008,1.8z"/>
</g>
</svg>
