<?xml version="1.0" encoding="iso-8859-1"?>
<!-- Generator: Adobe Illustrator 21.0.0, SVG Export Plug-In . SVG Version: 6.00 Build 0)  -->
<svg version="1.1" id="Layer_1" xmlns="http://www.w3.org/2000/svg" xmlns:xlink="http://www.w3.org/1999/xlink" x="0px" y="0px"
	 viewBox="0 0 98.624 98.624" style="enable-background:new 0 0 98.624 98.624;" xml:space="preserve">
<g>
	<path d="M39.392,55.264c4.299-3.513,8.494-5.725,12.586-6.634c-0.62-1.447-1.219-2.749-1.798-3.906
		c-7.109,2.273-14.797,3.41-23.064,3.41c-1.612,0-2.811-0.021-3.596-0.062c0,0.165-0.01,0.372-0.031,0.62s-0.031,0.455-0.031,0.62
		c0,6.448,2.17,12.131,6.51,17.05C31.952,62.477,35.093,58.777,39.392,55.264z"/>
	<path d="M49.312,0C22.078,0,0,22.078,0,49.312s22.078,49.312,49.312,49.312s49.312-22.078,49.312-49.312S76.546,0,49.312,0z
		 M76.158,64.874c-2.769,4.753-6.531,8.515-11.284,11.284s-9.941,4.154-15.562,4.154c-5.621,0-10.809-1.385-15.562-4.154
		s-8.515-6.531-11.284-11.284c-2.769-4.753-4.154-9.941-4.154-15.562s1.385-10.809,4.154-15.562s6.531-8.515,11.284-11.284
		s9.941-4.154,15.562-4.154c5.621,0,10.809,1.385,15.562,4.154c4.753,2.769,8.515,6.531,11.284,11.284s4.154,9.941,4.154,15.562
		S78.927,60.121,76.158,64.874z"/>
	<path d="M42.089,59.17c-3.865,3.348-6.727,6.861-8.587,10.54c4.671,3.637,9.941,5.456,15.81,5.456c3.059,0,6.097-0.579,9.114-1.736
		c-0.827-7.068-2.439-13.909-4.836-20.522C49.787,53.735,45.954,55.822,42.089,59.17z"/>
	<path d="M47.948,40.26c-3.141-5.58-6.593-10.23-10.354-13.95c-3.265,1.653-6.066,3.947-8.401,6.882
		c-2.335,2.935-3.978,6.179-4.929,9.734c0.909,0.083,2.253,0.124,4.03,0.124C35.197,43.05,41.748,42.12,47.948,40.26z"/>
	<path d="M65.804,29.41c-4.795-3.968-10.292-5.952-16.492-5.952c-2.108,0-4.216,0.289-6.324,0.868
		c3.637,3.761,7.006,8.453,10.106,14.074C58.715,36.044,62.952,33.047,65.804,29.41z"/>
	<path d="M55.326,42.802c0.62,1.323,1.323,2.997,2.108,5.022c3.059-0.289,6.386-0.434,9.982-0.434c2.563,0,5.105,0.062,7.626,0.186
		c-0.331-5.621-2.356-10.623-6.076-15.004C66.279,36.581,61.733,39.991,55.326,42.802z"/>
	<path d="M58.984,52.164c2.108,6.117,3.534,12.4,4.278,18.848c3.265-2.108,5.931-4.815,7.998-8.122
		c2.067-3.307,3.307-6.882,3.72-10.726c-3.017-0.207-5.766-0.31-8.246-0.31C64.461,51.854,61.877,51.957,58.984,52.164z"/>
</g>
</svg>
