<?xml version="1.0" encoding="iso-8859-1"?>
<!-- Generator: Adobe Illustrator 21.0.0, SVG Export Plug-In . SVG Version: 6.00 Build 0)  -->
<svg version="1.1" id="Layer_1" xmlns="http://www.w3.org/2000/svg" xmlns:xlink="http://www.w3.org/1999/xlink" x="0px" y="0px"
	 viewBox="0 0 45.079 62.921" style="enable-background:new 0 0 45.079 62.921;" xml:space="preserve">
<path d="M39.552,0c0,0-28.928,0-33.559,0C1.362,0,0,3.483,0,5.676c0,2.195,0,53.32,0,53.32c0,2.471,1.328,3.387,2.073,3.689
	c0.746,0.303,2.805,0.558,4.039-0.866c0,0,15.843-18.384,16.116-18.656c0.412-0.412,0.412-0.412,0.823-0.412
	c0.823,0,6.93,0,10.251,0c4.307,0,5-3.072,5.449-4.881C39,36.864,40.936,27.042,42.62,18.557l2.111-10.54
	C45.804,2.808,44.48,0,39.552,0z M37.57,9.083l-1.409,7.341c-0.168,0.794-1.167,1.628-2.094,1.628c-0.926,0-13.073,0-13.073,0
	c-1.471,0-2.524,1.003-2.524,2.472v1.601c0,1.471,1.059,2.513,2.531,2.513c0,0,10.054,0,11.092,0c1.039,0,2.058,1.139,1.833,2.248
	c-0.226,1.111-1.28,6.613-1.407,7.22c-0.127,0.608-0.823,1.646-2.058,1.646c-1.041,0-9.054,0-9.054,0
	c-1.649,0-2.147,0.215-3.25,1.586C17.053,38.71,7.133,50.623,7.133,50.623c-0.1,0.115-0.199,0.082-0.199-0.044V8.972
	c0-0.939,0.816-2.04,2.04-2.04c0,0,25.88,0,26.931,0C36.897,6.934,37.823,7.866,37.57,9.083z"/>
</svg>
