<?xml version="1.0" encoding="iso-8859-1"?>
<!-- Generator: Adobe Illustrator 21.0.0, SVG Export Plug-In . SVG Version: 6.00 Build 0)  -->
<svg version="1.1" id="Layer_1" xmlns="http://www.w3.org/2000/svg" xmlns:xlink="http://www.w3.org/1999/xlink" x="0px" y="0px"
	 viewBox="0 0 60.189 60.479" style="enable-background:new 0 0 60.189 60.479;" xml:space="preserve">
<g>
	<path d="M51.421,8.789C45.763,3.124,38.238,0.003,30.221,0C13.703,0,0.258,13.443,0.252,29.967c-0.002,5.282,1.378,10.438,4,14.982
		L0,60.479l15.887-4.167c4.377,2.388,9.306,3.646,14.321,3.648h0.012c16.517,0,29.962-13.445,29.969-29.968
		C60.194,21.983,57.08,14.454,51.421,8.789z M30.222,54.898h-0.01c-4.47-0.002-8.854-1.203-12.678-3.472l-0.91-0.54l-9.428,2.473
		l2.516-9.192L9.12,43.224c-2.493-3.966-3.81-8.549-3.808-13.256C5.317,16.234,16.492,5.061,30.231,5.061
		c6.653,0.002,12.907,2.597,17.61,7.305c4.703,4.708,7.291,10.966,7.289,17.622C55.125,43.724,43.951,54.898,30.222,54.898z"/>
	<path d="M43.885,36.242c-0.749-0.375-4.43-2.186-5.117-2.436c-0.686-0.25-1.186-0.375-1.685,0.375
		c-0.499,0.75-1.934,2.436-2.371,2.936c-0.437,0.5-0.874,0.562-1.622,0.187c-0.749-0.375-3.162-1.165-6.022-3.717
		c-2.226-1.986-3.729-4.438-4.166-5.187c-0.437-0.75-0.047-1.155,0.328-1.528c0.337-0.336,0.749-0.875,1.123-1.312
		c0.374-0.437,0.499-0.75,0.749-1.249c0.25-0.5,0.125-0.937-0.062-1.312c-0.187-0.375-1.685-4.061-2.309-5.56
		c-0.608-1.46-1.225-1.262-1.685-1.285c-0.436-0.022-0.936-0.026-1.435-0.026c-0.499,0-1.31,0.187-1.997,0.937
		c-0.686,0.75-2.621,2.561-2.621,6.247c0,3.686,2.683,7.247,3.058,7.746c0.374,0.5,5.28,8.063,12.792,11.307
		c1.787,0.772,3.181,1.232,4.269,1.577c1.794,0.57,3.426,0.49,4.717,0.297c1.439-0.215,4.43-1.811,5.054-3.56
		c0.624-1.749,0.624-3.249,0.437-3.561C45.133,36.805,44.634,36.617,43.885,36.242z"/>
</g>
</svg>
