<?xml version="1.0" encoding="iso-8859-1"?>
<!-- Generator: Adobe Illustrator 21.0.0, SVG Export Plug-In . SVG Version: 6.00 Build 0)  -->
<svg version="1.1" id="Layer_1" xmlns="http://www.w3.org/2000/svg" xmlns:xlink="http://www.w3.org/1999/xlink" x="0px" y="0px"
	 viewBox="0 0 98.624 98.624" style="enable-background:new 0 0 98.624 98.624;" xml:space="preserve">
<path d="M49.312,0C22.078,0,0,22.078,0,49.312s22.078,49.312,49.312,49.312s49.312-22.078,49.312-49.312S76.546,0,49.312,0z
	 M68.656,56.463c-3.723,4.786-8.509,7.179-14.358,7.179c-1.928,0-3.756-0.465-5.484-1.396c-1.728-0.931-2.925-2.027-3.59-3.29
	c-1.396,5.717-2.26,9.107-2.592,10.17c-1.064,3.855-3.29,7.91-6.681,12.165c-0.399,0.399-0.665,0.332-0.798-0.199
	c-0.798-5.65-0.764-10.337,0.1-14.059l4.686-20.241c-0.798-1.529-1.197-3.457-1.197-5.783c0-2.725,0.698-5.002,2.094-6.83
	s3.091-2.742,5.085-2.742c1.595,0,2.825,0.515,3.689,1.546c0.864,1.03,1.296,2.343,1.296,3.939c0,0.997-0.183,2.21-0.548,3.639
	c-0.366,1.429-0.848,3.091-1.446,4.985c-0.598,1.895-1.03,3.407-1.296,4.537c-0.465,1.928-0.1,3.606,1.097,5.035
	s2.792,2.144,4.786,2.144c3.39,0,6.182-1.928,8.376-5.783c2.194-3.855,3.29-8.509,3.29-13.959c0-4.188-1.346-7.595-4.038-10.22
	c-2.692-2.626-6.465-3.939-11.317-3.939c-5.451,0-9.855,1.745-13.212,5.235s-5.035,7.661-5.035,12.514
	c0,2.858,0.831,5.285,2.493,7.279c0.532,0.665,0.698,1.33,0.499,1.994c-0.067,0.133-0.15,0.482-0.249,1.047
	c-0.1,0.565-0.183,0.964-0.249,1.197s-0.199,0.582-0.399,1.047c-0.199,0.465-0.432,0.681-0.698,0.648s-0.598-0.05-0.997-0.05
	c-5.052-2.061-7.578-6.747-7.578-14.059c0-5.85,2.36-11.168,7.079-15.954c4.72-4.786,11.168-7.179,19.344-7.179
	c6.847,0,12.464,2.094,16.851,6.282c4.387,4.188,6.581,9.14,6.581,14.857C74.24,45.594,72.378,51.677,68.656,56.463z"/>
</svg>
