<?xml version="1.0" encoding="iso-8859-1"?>
<!-- Generator: Adobe Illustrator 21.0.0, SVG Export Plug-In . SVG Version: 6.00 Build 0)  -->
<svg version="1.1" id="Layer_1" xmlns="http://www.w3.org/2000/svg" xmlns:xlink="http://www.w3.org/1999/xlink" x="0px" y="0px"
	 viewBox="0 0 98.624 98.624" style="enable-background:new 0 0 98.624 98.624;" xml:space="preserve">
<path d="M49.312,0C22.078,0,0,22.078,0,49.312s22.078,49.312,49.312,49.312s49.312-22.078,49.312-49.312S76.546,0,49.312,0z
	 M77.204,48.463C74.93,60.14,67.148,64.178,57.209,64.178h-1.535c-1.214,0-2.248,0.884-2.437,2.083l-0.125,0.677l-1.934,12.255
	l-0.1,0.523c-0.189,1.198-1.223,2.083-2.437,2.083h-10.26c-0.909,0-1.604-0.814-1.462-1.713l1.052-6.669H26.715
	c-1.011,0-1.785-0.903-1.626-1.904l7.989-50.663c0.212-1.334,1.361-2.317,2.712-2.317h19.187c6.61,0,11.776,1.397,14.636,4.655
	c2.597,2.959,3.356,6.226,2.602,11.03c-0.639-0.34-1.334-0.63-2.08-0.879c-0.186-0.061-0.376-0.12-0.569-0.176
	c-0.386-0.113-0.784-0.215-1.194-0.306c-0.41-0.092-0.832-0.172-1.267-0.242c-1.518-0.244-3.18-0.36-4.961-0.36H47.103
	c-0.369,0-0.721,0.084-1.036,0.234c-0.693,0.333-1.209,0.99-1.335,1.793l-3.17,20.105c0.507-0.486,1.187-0.787,1.935-0.787h5.785
	c11.362,0,20.258-4.617,22.857-17.965c0.077-0.395,0.142-0.777,0.202-1.155c1.102,0.584,2.048,1.3,2.809,2.167
	C77.662,39.508,78.154,43.583,77.204,48.463z"/>
</svg>
