<?xml version="1.0" encoding="iso-8859-1"?>
<!-- Generator: Adobe Illustrator 21.0.0, SVG Export Plug-In . SVG Version: 6.00 Build 0)  -->
<svg version="1.1" id="Layer_1" xmlns="http://www.w3.org/2000/svg" xmlns:xlink="http://www.w3.org/1999/xlink" x="0px" y="0px"
	 viewBox="0 0 98.624 98.624" style="enable-background:new 0 0 98.624 98.624;" xml:space="preserve">
<g>
	<path d="M43.188,32.468h-9.066c-1.623,0-2.939,1.315-2.939,2.938v27.812c0,1.623,1.317,2.938,2.939,2.938h9.066
		c1.623,0,2.939-1.315,2.939-2.938V35.406C46.127,33.784,44.811,32.468,43.188,32.468z"/>
	<path d="M64.503,32.468h-9.066c-1.623,0-2.939,1.317-2.939,2.941v15.555c0,1.625,1.316,2.941,2.939,2.941h9.066
		c1.623,0,2.939-1.317,2.939-2.941V35.409C67.442,33.785,66.126,32.468,64.503,32.468z"/>
	<path d="M49.312,0C22.078,0,0,22.078,0,49.312s22.078,49.312,49.312,49.312s49.312-22.078,49.312-49.312S76.546,0,49.312,0z
		 M73.812,67.687c0,3.381-2.742,6.125-6.125,6.125H30.938c-3.381,0-6.125-2.742-6.125-6.125V30.938c0-3.381,2.742-6.125,6.125-6.125
		h36.749c3.381,0,6.125,2.742,6.125,6.125V67.687z"/>
</g>
</svg>
