<?xml version="1.0" encoding="iso-8859-1"?>
<!-- Generator: Adobe Illustrator 21.0.0, SVG Export Plug-In . SVG Version: 6.00 Build 0)  -->
<svg version="1.1" id="Layer_1" xmlns="http://www.w3.org/2000/svg" xmlns:xlink="http://www.w3.org/1999/xlink" x="0px" y="0px"
	 viewBox="0 0 40.227 66.876" style="enable-background:new 0 0 40.227 66.876;" xml:space="preserve">
<path d="M20.115,33.852c9.348,0,16.926-7.578,16.926-16.926S29.463,0,20.115,0S3.189,7.578,3.189,16.926
	C3.189,26.274,10.767,33.852,20.115,33.852z M20.115,8.599c4.599,0,8.327,3.728,8.327,8.327s-3.728,8.327-8.327,8.327
	s-8.327-3.728-8.327-8.327C11.788,12.328,15.516,8.599,20.115,8.599z M39.625,35.917c-0.956-1.92-3.602-3.517-7.12-0.745
	c-4.754,3.746-12.391,3.746-12.391,3.746s-7.637,0-12.391-3.746c-3.517-2.772-6.164-1.175-7.12,0.745
	c-1.666,3.347,0.216,4.964,4.464,7.691c3.628,2.329,8.613,3.199,11.833,3.525l-2.687,2.687c-3.785,3.785-7.439,7.439-9.974,9.974
	c-1.516,1.515-1.516,3.973,0,5.489l0.457,0.457c1.516,1.516,3.973,1.515,5.489,0l9.974-9.974c3.785,3.785,7.439,7.439,9.974,9.974
	c1.515,1.516,3.973,1.516,5.489,0l0.457-0.457c1.516-1.516,1.515-3.973,0-5.489l-9.974-9.974l-2.696-2.695
	c3.222-0.332,8.154-1.206,11.752-3.516C39.409,40.882,41.291,39.264,39.625,35.917z"/>
</svg>
