<?xml version="1.0" encoding="iso-8859-1"?>
<!-- Generator: Adobe Illustrator 21.0.0, SVG Export Plug-In . SVG Version: 6.00 Build 0)  -->
<svg version="1.1" id="Layer_1" xmlns="http://www.w3.org/2000/svg" xmlns:xlink="http://www.w3.org/1999/xlink" x="0px" y="0px"
	 viewBox="0 0 58.648 60.267" style="enable-background:new 0 0 58.648 60.267;" xml:space="preserve">
<g>
	<path d="M56.744,28.735c-0.194,0.003-0.385,0.151-0.788,0.323c0-7.541,0.007-14.869-0.004-22.195
		c-0.006-4.69-2.164-6.861-6.789-6.862C35.903,0,22.644-0.001,9.384,0.002C5.005,0.003,2.865,2.144,2.857,6.563
		c-0.013,6.899-0.004,13.799-0.004,20.698c0,0.564,0,1.129,0,1.906c-0.512-0.262-0.779-0.498-1.065-0.523
		c-0.547-0.049-1.426-0.175-1.587,0.087c-0.279,0.455-0.221,1.202-0.103,1.786c0.075,0.37,0.503,0.677,0.795,0.992
		c2.867,3.096,6.356,5.304,10.192,6.965c1.232,0.534,1.639,1.065,1.274,2.509c-1.144,4.52-1.396,9.071,0.876,13.372
		c1.889,3.576,4.772,5.81,8.973,5.855c3.807,0.04,6.172-2.252,6.251-6.08c0.078-3.814,0.017-7.631,0.017-11.571
		c0.646,0.124,1.099,0.211,1.683,0.324c0,0.705-0.009,1.344,0.002,1.982c0.06,3.393,0.058,6.789,0.213,10.177
		c0.113,2.465,1.51,4.105,3.849,4.827c3.092,0.955,5.872,0.124,8.292-1.861c3.798-3.114,4.824-7.386,4.582-12.027
		c-0.116-2.229-0.624-4.438-0.948-6.61c2.3-1.283,4.702-2.408,6.858-3.89c1.934-1.33,3.658-2.991,5.336-4.647
		c0.391-0.386,0.219-1.343,0.306-2.038C58.014,28.771,57.379,28.727,56.744,28.735z M51.861,31.598
		c-3.9,1.851-7.983,2.889-12.299,2.967c-1.94,0.035-3.881-0.015-5.821,0.013c-2.211,0.032-2.815,0.474-3.769,2.993
		c-2.333-3.584-5.723-3.062-9.004-2.975c-4.869,0.13-9.533-0.783-13.902-2.963c-0.495-0.247-1.06-0.984-1.06-1.494
		C6.001,22.381,6.051,14.621,6.169,6.863c0.037-2.456,1.119-3.464,3.569-3.676c0.75-0.065,1.506-0.093,2.26-0.093
		c11.643-0.006,23.287-0.007,34.93-0.003c5.099,0.002,6.114,1.026,6.12,6.181c0.008,6.792-0.022,13.584,0.028,20.376
		C53.083,30.661,52.766,31.169,51.861,31.598z"/>
	<path d="M21.225,18.123c-3.966,0.053-7.145,3.124-7.105,6.863c0.04,3.731,3.325,6.765,7.258,6.704
		c3.982-0.062,7.148-3.112,7.118-6.858C28.466,21.127,25.154,18.071,21.225,18.123z"/>
	<path d="M38.144,18.126c-3.981,0.055-7.146,3.099-7.123,6.85c0.023,3.714,3.317,6.763,7.256,6.718
		c3.973-0.046,7.146-3.102,7.112-6.851C45.356,21.112,42.076,18.072,38.144,18.126z"/>
</g>
</svg>
