<?xml version="1.0" encoding="iso-8859-1"?>
<!-- Generator: Adobe Illustrator 21.0.0, SVG Export Plug-In . SVG Version: 6.00 Build 0)  -->
<svg version="1.1" id="Layer_1" xmlns="http://www.w3.org/2000/svg" xmlns:xlink="http://www.w3.org/1999/xlink" x="0px" y="0px"
	 viewBox="0 0 61.139 61.377" style="enable-background:new 0 0 61.139 61.377;" xml:space="preserve">
<g>
	<path d="M30.62,14.786c-8.799,0-15.959,7.083-15.959,15.79c0,8.706,7.159,15.789,15.959,15.789c8.799,0,15.959-7.083,15.959-15.789
		C46.579,21.869,39.419,14.786,30.62,14.786z M30.62,40.552c-5.595,0-10.146-4.476-10.146-9.976c0-5.501,4.551-9.976,10.146-9.976
		c5.594,0,10.146,4.475,10.146,9.976S36.215,40.552,30.62,40.552z"/>
	<path d="M43.541,0H17.598C7.895,0,0,7.894,0,17.598v26.181c0,9.703,7.894,17.598,17.598,17.598h25.943
		c9.704,0,17.598-7.895,17.598-17.598V17.598C61.139,7.895,53.245,0,43.541,0z M55.315,43.779c0,6.492-5.282,11.774-11.774,11.774
		H17.598c-6.492,0-11.774-5.282-11.774-11.774V17.598c0-6.492,5.282-11.774,11.774-11.774v0h25.943
		c6.492,0,11.774,5.282,11.774,11.774V43.779z"/>
	<circle cx="46.863" cy="14.141" r="3.755"/>
</g>
</svg>
