<?xml version="1.0" encoding="iso-8859-1"?>
<!-- Generator: Adobe Illustrator 21.0.0, SVG Export Plug-In . SVG Version: 6.00 Build 0)  -->
<svg version="1.1" id="Layer_1" xmlns="http://www.w3.org/2000/svg" xmlns:xlink="http://www.w3.org/1999/xlink" x="0px" y="0px"
	 viewBox="0 0 98.624 98.624" style="enable-background:new 0 0 98.624 98.624;" xml:space="preserve">
<g>
	<circle cx="49.856" cy="30.911" r="8.327"/>
	<path d="M49.312,0C22.078,0,0,22.078,0,49.312s22.078,49.312,49.312,49.312s49.312-22.078,49.312-49.312S76.546,0,49.312,0z
		 M49.856,13.985c9.348,0,16.926,7.578,16.926,16.926s-7.578,16.926-16.926,16.926c-9.348,0-16.926-7.578-16.926-16.926
		S40.508,13.985,49.856,13.985z M64.902,57.593c-3.598,2.31-8.53,3.184-11.752,3.516l2.696,2.695l9.974,9.974
		c1.515,1.516,1.516,3.973,0,5.489l-0.457,0.457c-1.516,1.516-3.973,1.516-5.489,0c-2.535-2.535-6.189-6.189-9.974-9.974
		l-9.974,9.974c-1.516,1.515-3.973,1.516-5.489,0l-0.457-0.457c-1.516-1.516-1.516-3.973,0-5.489
		c2.535-2.535,6.189-6.189,9.974-9.974l2.687-2.687c-3.219-0.325-8.204-1.195-11.833-3.525c-4.248-2.727-6.13-4.344-4.464-7.691
		c0.956-1.92,3.602-3.517,7.12-0.745c4.754,3.746,12.391,3.746,12.391,3.746s7.637,0,12.391-3.746
		c3.518-2.772,6.164-1.175,7.12,0.745C71.032,53.249,69.15,54.866,64.902,57.593z"/>
</g>
</svg>
