<?xml version="1.0" encoding="iso-8859-1"?>
<!-- Generator: Adobe Illustrator 21.0.0, SVG Export Plug-In . SVG Version: 6.00 Build 0)  -->
<svg version="1.1" id="Layer_1" xmlns="http://www.w3.org/2000/svg" xmlns:xlink="http://www.w3.org/1999/xlink" x="0px" y="0px"
	 viewBox="0 0 98.624 98.624" style="enable-background:new 0 0 98.624 98.624;" xml:space="preserve">
<g>
	<path d="M41.568,45.176l3.85,11.439l11.367-3.843l-3.862-11.473C49.796,42.366,46.052,43.644,41.568,45.176z"/>
	<path d="M49.312,0C22.078,0,0,22.078,0,49.312s22.078,49.312,49.312,49.312s49.312-22.078,49.312-49.312S76.546,0,49.312,0z
		 M79.015,55.171c-0.619,0.963-2.571,1.811-2.571,1.811l-6.299,2.154l2.046,6.078l0.042,0.138c0.81,2.838-0.69,5.69-3.384,6.599
		c-0.534,0.178-1.09,0.271-1.65,0.276c-2.306,0.018-4.348-1.437-5.083-3.618l-2.031-6.033L48.73,66.459l2.012,5.978
		c0.027,0.075,0.051,0.157,0.073,0.236c0.781,2.734-0.718,5.588-3.416,6.497c-0.536,0.179-1.089,0.272-1.649,0.277
		c-2.305,0.018-4.348-1.437-5.084-3.621l-1.995-5.928l-5.626,1.924c-0.605,0.202-1.221,0.309-1.837,0.314v-0.001
		c-2.296,0.017-4.233-1.322-4.937-3.411c-0.027-0.08-0.052-0.16-0.075-0.24c-0.786-2.746,0.716-5.616,3.42-6.526l5.729-1.937
		l-3.84-11.409h-0.001v-0.001c-1.825,0.623-3.739,1.276-5.747,1.962c-0.575,0.195-1.165,0.294-1.756,0.299
		c-2.279,0.017-4.209-1.34-4.921-3.46c-0.027-0.082-0.051-0.162-0.074-0.242c-0.776-2.714,0.728-5.553,3.424-6.463l5.765-1.931
		l-1.956-5.81c-0.025-0.079-0.05-0.158-0.074-0.239c-0.78-2.732,0.719-5.584,3.413-6.493c0.537-0.178,1.092-0.272,1.653-0.277
		c2.306-0.018,4.349,1.436,5.084,3.618l1.96,5.823l11.377-3.811l-1.966-5.839l-0.072-0.241c-0.782-2.733,0.722-5.584,3.416-6.492
		c0.539-0.181,1.097-0.276,1.658-0.281c0.834-0.006,1.64,0.182,2.4,0.557c1.27,0.633,2.221,1.721,2.675,3.066l1.97,5.853
		l5.931-1.987c0.525-0.151,1.055-0.227,1.579-0.231c2.339-0.018,4.323,1.37,5.052,3.534l0.065,0.209
		c0.809,2.827-1.201,5.35-3.608,6.159c-0.001,0.001-0.118,0.04-5.768,1.969v0.001l3.872,11.502l5.996-2.027
		c0.559-0.187,1.136-0.282,1.716-0.287c2.303-0.017,4.326,1.389,5.04,3.502l0.066,0.22C80.093,52.234,79.846,53.876,79.015,55.171z"
		/>
</g>
</svg>
