<?xml version="1.0" encoding="iso-8859-1"?>
<!-- Generator: Adobe Illustrator 21.0.0, SVG Export Plug-In . SVG Version: 6.00 Build 0)  -->
<svg version="1.1" id="Layer_1" xmlns="http://www.w3.org/2000/svg" xmlns:xlink="http://www.w3.org/1999/xlink" x="0px" y="0px"
	 viewBox="0 0 98.624 98.624" style="enable-background:new 0 0 98.624 98.624;" xml:space="preserve">
<path d="M49.312,0C22.078,0,0,22.078,0,49.312s22.078,49.312,49.312,49.312s49.312-22.078,49.312-49.312
	C98.624,22.078,76.546,0,49.312,0z M40.898,73.044c0,0.719-0.388,1.148-0.942,1.148c-0.197,0-0.414-0.054-0.643-0.168l-16.438-8.219
	c-0.581-0.291-1.057-1.06-1.057-1.71V25.914c0-0.237,0.064-0.427,0.173-0.558c0.111-0.134,0.269-0.207,0.456-0.207
	c0.131,0,0.276,0.036,0.428,0.112l1.057,0.528l16.731,8.366c0.144,0.072,0.235,0.219,0.235,0.381V73.044z M42.584,56.58V37.012
	l17.393,28.264L42.584,56.58z M48.492,43.396l11.176-18.16c0.119-0.193,0.338-0.304,0.559-0.304c0.006,0,0.012,0.002,0.018,0.002
	c0.09,0.002,0.179,0.022,0.262,0.063l18.131,9.066c0.226,0.113,0.306,0.395,0.174,0.61L60.969,63.669L48.492,43.396z M79.055,73.032
	c0,0.975-0.713,1.415-1.585,0.98l-15.973-7.986l17.558-28.532L79.055,73.032L79.055,73.032z"/>
</svg>
