<?xml version="1.0" encoding="iso-8859-1"?>
<!-- Generator: Adobe Illustrator 21.0.0, SVG Export Plug-In . SVG Version: 6.00 Build 0)  -->
<svg version="1.1" id="Layer_1" xmlns="http://www.w3.org/2000/svg" xmlns:xlink="http://www.w3.org/1999/xlink" x="0px" y="0px"
	 viewBox="0 0 55.501 53.034" style="enable-background:new 0 0 55.501 53.034;" xml:space="preserve">
<path id="LinkedIn_1_" d="M55.501,32.515v20.519H43.605V33.889c0-4.809-1.721-8.091-6.026-8.091c-3.287,0-5.243,2.212-6.104,4.352
	c-0.314,0.765-0.395,1.83-0.395,2.9v19.984h-11.9c0,0,0.16-32.425,0-35.784h11.898v5.072c-0.024,0.038-0.055,0.079-0.078,0.116
	h0.078v-0.116c1.581-2.435,4.404-5.913,10.723-5.913C49.632,16.409,55.501,21.524,55.501,32.515z M6.733,0C2.662,0,0,2.67,0,6.182
	c0,3.435,2.586,6.186,6.576,6.186h0.079c4.15,0,6.73-2.751,6.73-6.186C13.307,2.67,10.805,0,6.733,0z M0.707,53.034h11.895V17.25
	H0.707V53.034z"/>
</svg>
