<?xml version="1.0" encoding="iso-8859-1"?>
<!-- Generator: Adobe Illustrator 21.0.0, SVG Export Plug-In . SVG Version: 6.00 Build 0)  -->
<svg version="1.1" id="Layer_1" xmlns="http://www.w3.org/2000/svg" xmlns:xlink="http://www.w3.org/1999/xlink" x="0px" y="0px"
	 viewBox="0 0 73.756 43.479" style="enable-background:new 0 0 73.756 43.479;" xml:space="preserve">
<g>
	<path d="M69.461,14.045c-0.764-1.107-2.266-1.423-3.399-0.659c-1.107,0.738-1.423,2.266-0.659,3.399
		c2.266,3.373,3.452,7.326,3.452,11.436s-1.186,8.063-3.452,11.436c-0.738,1.107-0.448,2.635,0.685,3.399
		c0.421,0.29,0.896,0.422,1.37,0.422c0.79,0,1.555-0.369,2.003-1.079c2.819-4.19,4.295-9.091,4.295-14.177
		S72.281,18.235,69.461,14.045z"/>
	<path d="M62.451,18.024c-0.764-1.133-2.266-1.423-3.399-0.659s-1.423,2.266-0.659,3.399c1.502,2.213,2.293,4.796,2.293,7.457
		c0,2.688-0.791,5.243-2.293,7.457c-0.764,1.106-0.474,2.635,0.659,3.399c0.421,0.29,0.896,0.422,1.37,0.422
		c0.791,0,1.581-0.369,2.029-1.079c2.056-3.004,3.136-6.535,3.136-10.198C65.587,24.585,64.506,21.054,62.451,18.024z"/>
	<path d="M48.96,17.523C47.985,7.694,39.685,0,29.592,0c-8.353,0-15.758,5.376-18.419,13.175C4.875,14.097,0,19.526,0,26.087
		c0,7.194,5.876,13.07,13.096,13.07h33.518c6.034,0,10.962-4.901,10.962-10.936C57.576,22.977,53.887,18.603,48.96,17.523z
		 M46.614,34.255H13.096c-4.506,0-8.195-3.663-8.195-8.169s3.663-8.169,8.195-8.169c2.187,0,4.242,0.843,5.797,2.398
		c0.949,0.949,2.503,0.949,3.478,0c0.949-0.949,0.949-2.503,0-3.478c-1.686-1.686-3.768-2.846-6.034-3.426
		c2.319-5.112,7.484-8.538,13.254-8.538c8.037,0,14.572,6.535,14.572,14.546c0,1.555-0.237,3.083-0.738,4.559
		c-0.422,1.291,0.264,2.661,1.555,3.109c0.263,0.079,0.527,0.132,0.764,0.132c1.028,0,1.976-0.659,2.319-1.686
		c0.316-0.975,0.553-1.95,0.711-2.951c2.266,0.87,3.874,3.057,3.874,5.613C52.675,31.541,49.935,34.255,46.614,34.255z"/>
</g>
</svg>
