<?xml version="1.0" encoding="iso-8859-1"?>
<!-- Generator: Adobe Illustrator 21.0.0, SVG Export Plug-In . SVG Version: 6.00 Build 0)  -->
<svg version="1.1" id="Layer_1" xmlns="http://www.w3.org/2000/svg" xmlns:xlink="http://www.w3.org/1999/xlink" x="0px" y="0px"
	 viewBox="0 0 50.534 64.729" style="enable-background:new 0 0 50.534 64.729;" xml:space="preserve">
<path d="M25.425,0C11.383,0,0,11.383,0,25.425c0,17.403,19.467,39.303,25.425,39.303c5.641,0,25.109-22.225,25.109-39.303
	C50.534,11.383,39.468,0,25.425,0z M25.375,40.932c-8.505,0-15.399-6.894-15.399-15.399c0-3.322,1.052-6.399,2.841-8.915
	c0.295,3.187,2.975,5.683,6.239,5.683c3.461,0,6.267-2.806,6.267-6.267c0-2.394-1.343-4.474-3.317-5.53
	c1.084-0.242,2.211-0.371,3.369-0.371c8.505,0,15.399,6.894,15.399,15.399C40.774,34.037,33.879,40.932,25.375,40.932z"/>
</svg>
