<?xml version="1.0" encoding="iso-8859-1"?>
<!-- Generator: Adobe Illustrator 21.0.0, SVG Export Plug-In . SVG Version: 6.00 Build 0)  -->
<svg version="1.1" id="Layer_1" xmlns="http://www.w3.org/2000/svg" xmlns:xlink="http://www.w3.org/1999/xlink" x="0px" y="0px"
	 viewBox="0 0 98.624 98.624" style="enable-background:new 0 0 98.624 98.624;" xml:space="preserve">
<g>
	<path d="M65.659,26.302c-1.053,0-26.998,0-26.998,0c-1.227,0-2.045,1.104-2.045,2.045v41.711c0,0.126,0.098,0.16,0.199,0.044
		c0,0,9.945-11.943,11.052-13.318c1.106-1.375,1.605-1.59,3.259-1.59c0,0,8.033,0,9.076,0c1.238,0,1.936-1.041,2.063-1.651
		c0.127-0.609,1.184-6.124,1.41-7.238c0.225-1.112-0.797-2.254-1.838-2.254c-1.04,0-11.119,0-11.119,0
		c-1.476,0-2.537-1.045-2.537-2.519v-1.605c0-1.473,1.056-2.478,2.53-2.478c0,0,12.178,0,13.106,0c0.929,0,1.93-0.837,2.099-1.633
		l1.412-7.36C67.582,27.235,66.653,26.302,65.659,26.302z"/>
	<path d="M49.312,0C22.078,0,0,22.078,0,49.312s22.078,49.312,49.312,49.312s49.312-22.078,49.312-49.312S76.546,0,49.312,0z
		 M74.508,27.386l-2.115,10.556c-1.689,8.509-3.631,18.363-3.881,19.372c-0.451,1.814-1.145,4.893-5.463,4.893
		c-3.329,0-9.451,0-10.276,0c-0.413,0-0.413,0-0.825,0.413c-0.273,0.273-16.156,18.703-16.156,18.703
		c-1.237,1.427-3.301,1.172-4.049,0.869c-0.747-0.303-2.079-1.221-2.079-3.698c0,0,0-51.253,0-53.453c0-2.199,1.365-5.69,6.008-5.69
		c4.642,0,33.643,0,33.643,0C74.255,19.35,75.582,22.165,74.508,27.386z"/>
</g>
</svg>
