<?xml version="1.0" encoding="iso-8859-1"?>
<!-- Generator: Adobe Illustrator 21.0.0, SVG Export Plug-In . SVG Version: 6.00 Build 0)  -->
<svg version="1.1" id="Layer_1" xmlns="http://www.w3.org/2000/svg" xmlns:xlink="http://www.w3.org/1999/xlink" x="0px" y="0px"
	 viewBox="0 0 98.624 98.624" style="enable-background:new 0 0 98.624 98.624;" xml:space="preserve">
<path d="M49.312,0C22.078,0,0,22.078,0,49.312s22.078,49.312,49.312,49.312s49.312-22.078,49.312-49.312S76.546,0,49.312,0z
	 M82.572,65.182c-0.676,1.578-3.536,2.737-8.743,3.546c-0.173,0.234-0.354,1.062-0.464,1.567c-0.111,0.508-0.224,1.01-0.381,1.543
	c-0.217,0.742-0.763,1.151-1.537,1.151h-0.038l-0.039-0.001c-0.369,0-0.874-0.062-1.501-0.185c-1.001-0.195-2.123-0.376-3.542-0.376
	c-0.825,0-1.68,0.072-2.539,0.214c-1.68,0.279-3.107,1.288-4.763,2.458c-2.366,1.673-5.046,3.568-9.122,3.568
	c-0.183,0-0.354-0.006-0.487-0.012c-0.111,0.008-0.224,0.012-0.336,0.012c-4.075,0-6.756-1.895-9.123-3.569
	c-1.653-1.168-3.08-2.177-4.76-2.457c-0.861-0.143-1.715-0.214-2.54-0.214c-1.487,0-2.675,0.232-3.542,0.401
	c-0.578,0.114-1.078,0.211-1.501,0.211c-1.048,0-1.456-0.639-1.612-1.173c-0.16-0.544-0.272-1.059-0.381-1.559
	c-0.111-0.507-0.292-1.338-0.466-1.573c-5.206-0.808-8.066-1.969-8.744-3.554c-0.086-0.202-0.135-0.41-0.147-0.619
	c-0.039-0.703,0.458-1.322,1.152-1.437c9.032-1.487,13.1-10.761,13.269-11.154c0.01-0.023,0.02-0.045,0.031-0.067
	c0.482-0.978,0.59-1.798,0.32-2.434c-0.522-1.229-2.444-1.839-3.715-2.242c-0.353-0.112-0.687-0.217-0.964-0.327
	c-3.078-1.216-3.507-2.613-3.324-3.57c0.252-1.33,1.874-2.222,3.23-2.222c0.392,0,0.746,0.072,1.053,0.216
	c1.158,0.543,2.186,0.817,3.056,0.817c0.652,0,1.066-0.156,1.293-0.282c-0.03-0.534-0.066-1.086-0.099-1.618
	c-0.284-4.513-0.637-10.128,0.837-13.435c4.384-9.828,13.675-10.592,16.417-10.592c0.085,0,1.15-0.011,1.15-0.011
	c0.051-0.001,0.105-0.001,0.162-0.001h0.003c2.749,0,12.061,0.765,16.446,10.597c1.476,3.309,1.122,8.929,0.837,13.445l-0.012,0.191
	c-0.031,0.493-0.06,0.964-0.086,1.422c0.205,0.113,0.566,0.252,1.116,0.278c0.83-0.037,1.793-0.31,2.865-0.812
	c0.456-0.213,0.944-0.258,1.272-0.258c0.481,0,0.972,0.094,1.386,0.265l0.004,0.001c1.23,0.439,2.004,1.326,2.023,2.32
	c0.024,1.265-1.106,2.358-3.359,3.247c-0.275,0.108-0.609,0.215-0.965,0.328c-1.272,0.403-3.193,1.013-3.714,2.242
	c-0.27,0.637-0.163,1.455,0.319,2.433c0.011,0.022,0.021,0.044,0.031,0.067c0.169,0.393,4.234,9.665,13.27,11.154
	c0.694,0.114,1.191,0.733,1.152,1.436C82.709,64.77,82.659,64.98,82.572,65.182z"/>
</svg>
