<?xml version="1.0" encoding="iso-8859-1"?>
<!-- Generator: Adobe Illustrator 21.0.0, SVG Export Plug-In . SVG Version: 6.00 Build 0)  -->
<svg version="1.1" id="Layer_1" xmlns="http://www.w3.org/2000/svg" xmlns:xlink="http://www.w3.org/1999/xlink" x="0px" y="0px"
	 viewBox="0 0 49.387 50.325" style="enable-background:new 0 0 49.387 50.325;" xml:space="preserve">
<g>
	<path d="M45.617,36.409c-1.499-1.285-3.211-2.355-4.71-3.426c-3.212-2.355-6.209-2.355-8.564,1.285
		c-1.285,2.141-3.212,2.141-5.138,1.285c-5.353-2.569-9.635-6.209-12.204-11.776c-1.071-2.355-1.071-4.71,1.499-6.423
		c1.285-0.856,2.783-1.927,2.569-4.068c-0.214-2.569-6.423-11.347-8.992-12.204c-1.071-0.428-2.141-0.428-3.212,0
		C1.084,3.009-1.485,7.933,0.87,13.5c6.851,17.128,19.269,28.904,35.969,36.183c1.07,0.428,2.141,0.428,2.569,0.642
		c3.854,0,8.35-3.64,9.635-7.279C50.328,39.62,47.758,38.122,45.617,36.409z"/>
	<path d="M26.775,2.581c1.957,0.309,3.731,0.729,5.367,1.248c0.277,0.088,0.567,0.167,0.835,0.261
		c0.096,0.034,0.183,0.075,0.278,0.11c1.733,0.632,3.286,1.396,4.652,2.322c4.804,3.255,7.413,8.424,8.35,16.185
		c0,1.284-0.428,2.997,1.285,2.997c0,0,0,0,0.001,0c0,0,0,0,0,0c1.713,0,1.285-1.713,1.285-2.783
		c0.12-6.624-3.079-12.909-7.997-17.217c-2.944-2.578-6.504-4.444-10.336-5.254c-0.436-0.092-0.875-0.175-1.317-0.24
		c-0.722-0.105-1.452-0.172-2.188-0.198c-0.106,0.027-0.229,0.037-0.363,0.037c-0.326,0.001-0.707-0.054-1.07-0.048
		C24.852,0,24.211,0.184,24.207,1.287c0,0.003-0.001,0.006-0.002,0.01C24.206,2.581,25.705,2.367,26.775,2.581z"/>
	<path d="M28.918,6.22c-1.07-0.214-2.783-0.857-2.997,0.856s1.498,1.499,2.569,1.713c7.707,1.713,10.276,4.496,11.561,11.99
		c0.214,1.07-0.214,2.783,1.713,2.569c1.498-0.214,0.856-1.713,1.07-2.569C42.834,13.5,36.625,7.077,28.918,6.22z"/>
	<path d="M29.559,12.214c-0.857,0-1.713,0-1.927,0.856c-0.428,1.285,0.643,1.499,1.499,1.713c3.211,0.429,4.924,2.141,5.138,5.353
		c0.214,0.857,0.643,1.499,1.499,1.499c1.285-0.214,1.285-1.285,1.285-2.141C37.053,15.855,33.199,12.001,29.559,12.214z"/>
</g>
</svg>
