<?xml version="1.0" encoding="iso-8859-1"?>
<!-- Generator: Adobe Illustrator 21.0.0, SVG Export Plug-In . SVG Version: 6.00 Build 0)  -->
<svg version="1.1" id="Layer_1" xmlns="http://www.w3.org/2000/svg" xmlns:xlink="http://www.w3.org/1999/xlink" x="0px" y="0px"
	 viewBox="0 0 57.237 49.26" style="enable-background:new 0 0 57.237 49.26;" xml:space="preserve">
<g>
	<path d="M56.82,9.131L38.689,0.065c-0.082-0.041-0.172-0.06-0.262-0.063C38.421,0.002,38.415,0,38.409,0
		c-0.221,0-0.44,0.111-0.559,0.304l-11.176,18.16l12.475,20.272L56.992,9.74C57.126,9.526,57.046,9.244,56.82,9.131z"/>
	<polygon points="20.767,31.649 38.16,40.345 20.767,12.081 	"/>
	<path d="M39.68,41.094l15.973,7.986c0.872,0.436,1.585-0.005,1.585-0.98V12.562L39.68,41.094z"/>
	<path d="M18.845,9.223L2.114,0.857L1.057,0.329C0.905,0.253,0.76,0.217,0.629,0.217c-0.187,0-0.345,0.073-0.456,0.207
		C0.064,0.555,0,0.745,0,0.982v38.181c0,0.65,0.476,1.419,1.057,1.71l16.438,8.219c0.228,0.114,0.446,0.168,0.643,0.168
		c0.554,0,0.942-0.429,0.942-1.148V9.603C19.081,9.443,18.99,9.296,18.845,9.223z"/>
</g>
</svg>
