<?xml version="1.0" encoding="iso-8859-1"?>
<!-- Generator: Adobe Illustrator 21.0.0, SVG Export Plug-In . SVG Version: 6.00 Build 0)  -->
<svg version="1.1" id="Layer_1" xmlns="http://www.w3.org/2000/svg" xmlns:xlink="http://www.w3.org/1999/xlink" x="0px" y="0px"
	 viewBox="0 0 98.624 98.624" style="enable-background:new 0 0 98.624 98.624;" xml:space="preserve">
<g>
	<path d="M49.312,0C22.078,0,0,22.078,0,49.312s22.078,49.312,49.312,49.312s49.312-22.078,49.312-49.312S76.546,0,49.312,0z
		 M59.223,64.054H25.705c-7.22,0-13.096-5.876-13.096-13.07c0-6.561,4.875-11.99,11.173-12.912
		c2.661-7.8,10.066-13.175,18.419-13.175c10.092,0,18.393,7.694,19.368,17.523c4.928,1.08,8.617,5.455,8.617,10.698
		C70.184,59.153,65.257,64.054,59.223,64.054z M73.03,64.397c-0.474,0-0.949-0.132-1.37-0.422c-1.133-0.764-1.423-2.292-0.659-3.399
		c1.502-2.213,2.293-4.769,2.293-7.457c0-2.661-0.791-5.244-2.293-7.457c-0.764-1.133-0.474-2.635,0.659-3.399
		s2.635-0.474,3.399,0.659c2.055,3.03,3.136,6.561,3.136,10.198c0,3.663-1.08,7.194-3.136,10.198
		C74.611,64.028,73.821,64.397,73.03,64.397z M82.069,67.295c-0.448,0.711-1.212,1.08-2.003,1.08c-0.474,0-0.949-0.132-1.37-0.422
		c-1.133-0.764-1.423-2.293-0.685-3.399c2.266-3.373,3.452-7.326,3.452-11.436s-1.186-8.063-3.452-11.436
		c-0.764-1.133-0.448-2.661,0.659-3.399c1.133-0.764,2.635-0.448,3.399,0.659c2.82,4.19,4.295,9.091,4.295,14.177
		S84.888,63.106,82.069,67.295z"/>
	<path d="M61.383,47.48c-0.158,1.001-0.395,1.976-0.711,2.951c-0.343,1.028-1.291,1.686-2.319,1.686
		c-0.237,0-0.501-0.053-0.764-0.132c-1.291-0.448-1.976-1.818-1.555-3.109c0.501-1.476,0.738-3.004,0.738-4.559
		c0-8.011-6.535-14.546-14.572-14.546c-5.771,0-10.936,3.426-13.254,8.538c2.266,0.58,4.348,1.739,6.034,3.426
		c0.949,0.975,0.949,2.53,0,3.478c-0.975,0.949-2.53,0.949-3.478,0c-1.555-1.555-3.61-2.398-5.797-2.398
		c-4.532,0-8.195,3.663-8.195,8.169s3.689,8.169,8.195,8.169h33.518c3.32,0,6.061-2.714,6.034-6.061
		C65.257,50.536,63.649,48.349,61.383,47.48z"/>
</g>
</svg>
