<?xml version="1.0" encoding="iso-8859-1"?>
<!-- Generator: Adobe Illustrator 21.0.0, SVG Export Plug-In . SVG Version: 6.00 Build 0)  -->
<svg version="1.1" id="Layer_1" xmlns="http://www.w3.org/2000/svg" xmlns:xlink="http://www.w3.org/1999/xlink" x="0px" y="0px"
	 viewBox="0 0 98.624 98.624" style="enable-background:new 0 0 98.624 98.624;" xml:space="preserve">
<g>
	<path d="M67.783,44.689c-1.985,0-3.518,0.571-4.607,1.694c-1.097,1.12-1.779,2.644-2.058,4.572h13.306
		c-0.145-2.052-0.83-3.606-2.064-4.667C71.136,45.224,69.607,44.689,67.783,44.689z"/>
	<path d="M38.662,52.477c-0.977-0.452-2.356-0.682-4.123-0.699h-8.85v10.988h8.713c1.79,0,3.175-0.234,4.175-0.723
		c1.803-0.899,2.707-2.609,2.707-5.149C41.284,54.752,40.409,53.271,38.662,52.477z"/>
	<path d="M38.772,43.93c1.115-0.68,1.672-1.889,1.672-3.625c0-1.918-0.737-3.191-2.215-3.803c-1.27-0.426-2.895-0.645-4.867-0.645
		h-7.674v9.095h8.724C36.206,44.952,37.656,44.611,38.772,43.93z"/>
	<path d="M49.312,0C22.078,0,0,22.078,0,49.312s22.078,49.312,49.312,49.312s49.312-22.078,49.312-49.312S76.546,0,49.312,0z
		 M59.418,30.408h16.604v4.124h-0.001H59.418V30.408z M48.14,64.061c-0.781,1.283-1.751,2.366-2.917,3.238
		c-1.313,1.009-2.867,1.7-4.653,2.07c-1.792,0.37-3.732,0.557-5.821,0.557H16.181v-41.23h19.912
		c5.019,0.082,8.577,1.536,10.678,4.392c1.261,1.751,1.885,3.853,1.885,6.296c0,2.521-0.632,4.538-1.905,6.07
		c-0.708,0.859-1.754,1.641-3.139,2.346c2.098,0.768,3.69,1.977,4.753,3.642c1.071,1.659,1.607,3.674,1.607,6.039
		C49.971,59.929,49.368,62.123,48.14,64.061z M82.435,56.05H60.932c0.119,2.968,1.143,5.044,3.086,6.231
		c1.172,0.745,2.593,1.109,4.257,1.109c1.754,0,3.184-0.444,4.285-1.355c0.6-0.483,1.129-1.165,1.586-2.026h7.881
		c-0.206,1.753-1.155,3.531-2.861,5.338c-2.642,2.872-6.348,4.312-11.107,4.312c-3.932,0-7.396-1.214-10.404-3.634
		c-2.997-2.429-4.503-6.367-4.503-11.831c0-5.123,1.352-9.045,4.064-11.774c2.722-2.735,6.235-4.096,10.566-4.096
		c2.567,0,4.88,0.459,6.945,1.381c2.058,0.923,3.758,2.376,5.098,4.373c1.212,1.759,1.992,3.792,2.355,6.109
		C82.381,51.535,82.472,53.492,82.435,56.05z"/>
</g>
</svg>
